<svg xmlns="http://www.w3.org/2000/svg" width="1199" height="997"><g fill="none" fill-rule="evenodd" opacity=".6"><g stroke="#F4F4F4"><path d="M231.999223 503.471907l-19.542591 15.636656M231.999223 503.471907l-29.060116 13.110212M231.999223 503.471907l-44.848919 14.391558M231.999223 503.471907l-14.826731 50.386314M231.999223 503.471907l-36.285347-22.618321M231.999223 503.471907l53.309632 21.917967M231.999223 503.471907l34.841602-70.585116M231.999223 503.471907l-48.520043.859667M231.999223 503.471907l-17.249771-4.160164M231.999223 503.471907l9.602525 44.407299M942.150068 381.496468l-25.356566-29.949351M942.150068 381.496468l11.871332-34.506543M942.150068 381.496468l52.174456-27.682853M942.150068 381.496468l-74.624836 56.147842M942.150068 381.496468l26.393669 2.35685M942.150068 381.496468l49.305646-6.205817M311.472094 733.845335l4.069188 26.295587M311.472094 733.845335l31.455282-10.924997M311.472094 733.845335l-51.481476 13.667983M311.472094 733.845335l-61.180116-19.440783M311.472094 733.845335l21.53668 2.727411M311.472094 733.845335l7.498709-14.651347M311.472094 733.845335l53.916659-8.446457M311.472094 733.845335l-18.797267 41.65307M311.472094 733.845335l-29.698867-39.130809M311.472094 733.845335l-29.772349 29.563771M311.472094 733.845335l38.415236-31.048512M311.472094 733.845335l52.227671-18.856464M311.472094 733.845335l61.635567 21.102735M815.942981 827.567993l-10.129806-40.164297M815.942981 827.567993l34.705936-3.505296M815.942981 827.567993l31.963856 20.992029M815.942981 827.567993l9.87803 46.865195M815.942981 827.567993l19.612965-24.956491M815.942981 827.567993l-34.020715-44.830892M300.670563 804.683572l2.110496 23.541227M300.670563 804.683572l-18.582099 5.040871M300.670563 804.683572l-7.995736-29.185167M300.670563 804.683572l-18.970818-41.274466M300.670563 804.683572l29.859177-9.202173M300.670563 804.683572l-21.155214-15.545585M300.670563 804.683572l-24.21478 36.831493M305.596725 376.852109l45.087115-60.219461M305.596725 376.852109l-30.892303 5.98902M305.596725 376.852109l-37.913655-.572341M305.596725 376.852109l18.277012-26.863012M305.596725 376.852109l-20.877615-25.873803M305.596725 376.852109l-38.7559 56.034682M305.596725 376.852109l9.805117-44.167311M305.596725 376.852109l74.097124 27.809882M305.596725 376.852109l-49.444011 30.309936M865.090433 324.846381l51.703069 26.700736M865.090433 324.846381l88.930967 22.143544M865.090433 324.846381l-112.296758 1.413977M865.090433 324.846381l-24.894577-30.100048M865.090433 324.846381L790.1242 301.710623M865.090433 324.846381l60.10709-4.810332M865.090433 324.846381l-4.644005-36.369111M860.446428 288.47727l-96.28029-38.382308M860.446428 288.47727l-20.250572 6.269063M860.446428 288.47727l-7.723756-17.684816M860.446428 288.47727l64.751095 31.558779M241.601748 547.879206l-29.145116-28.770643M241.601748 547.879206l-40.123532 42.581506M241.601748 547.879206l-26.075196 43.454767M241.601748 547.879206l-38.662641-31.297087M241.601748 547.879206l-24.429256 5.979015M241.601748 547.879206l79.510269 44.159424M241.601748 547.879206l43.707107-22.489332M241.601748 547.879206l-26.852296-48.567463M675.350459 412.282203l-52.650362-54.746791M675.350459 412.282203l67.040884 22.050728M675.350459 412.282203l56.906635 79.528649M675.350459 412.282203l82.88574 57.965463M675.350459 412.282203l-63.187301-18.656949M675.350459 412.282203l-21.46382-47.287253M675.350459 412.282203l-64.694054-41.269078M201.14075 684.867433l31.688159-6.173255M201.14075 684.867433l-29.794707-37.713877M201.14075 684.867433l-5.344659-22.193397M201.14075 684.867433l-27.624373-3.123542M201.14075 684.867433l49.151228 29.537119M201.14075 684.867433l38.025461-16.319748M201.14075 684.867433l27.59103-27.375252M201.14075 684.867433l20.621618 3.675395M201.14075 684.867433l6.640601-10.1873M201.14075 684.867433l-1.21272-49.048064M201.14075 684.867433l9.794733 26.362217M82.0321085 687.659907l13.5947571-38.16545M82.0321085 687.659907l57.8368205 25.190104M82.0321085 687.659907l-15.0823649-21.682524M82.0321085 687.659907l-33.970242-35.123489M82.0321085 687.659907l20.3825192.055146M349.340274 561.913311l-5.88352 38.230311M349.340274 561.913311l7.358672 64.487206M349.340274 561.913311l-28.228257 30.125319M349.340274 561.913311l25.856512 55.273084M349.340274 561.913311l-64.031419-36.523437M349.340274 561.913311l10.576911 51.95495M349.340274 561.913311l30.353575-157.25132M214.749452 499.311743l-2.29282 19.79682M214.749452 499.311743l-11.810345 17.270376M214.749452 499.311743l-27.599148 18.551722M214.749452 499.311743l6.092217-37.414068M214.749452 499.311743l2.42304 54.546478M214.749452 499.311743l-3.761165-41.293195M214.749452 499.311743l-19.035576-18.458157M214.749452 499.311743l-31.270272 5.019831M716.917615 755.060107l-22.738778 8.78078M716.917615 755.060107l88.89556 32.343589M716.917615 755.060107l-86.473585-24.5402M716.917615 755.060107l-63.532758-35.351462M716.917615 755.060107l65.004651 27.676994M257.46879 358.899249l-14.961951-8.918621M257.46879 358.899249l-32.854089 1.527781M257.46879 358.899249l17.235632 23.94188M257.46879 358.899249l10.21428 17.380519M257.46879 358.899249l-15.390831 36.887658M257.46879 358.899249l27.25032-7.920943M257.46879 358.899249l-28.790491 38.984187M257.46879 358.899249l-.209624-33.507182M257.46879 358.899249l-38.455588-21.738142M257.46879 358.899249l11.101647-42.561823M257.46879 358.899249l57.933052-26.214451M257.46879 358.899249l-1.316076 48.262796M775.336146 647.446452l-39.678413-28.689587M775.336146 647.446452l-42.05908 22.096947M775.336146 647.446452l22.227014 25.88618M775.336146 647.446452l2.073782-49.464275M775.336146 647.446452l-2.222942-31.882483M775.336146 647.446452l51.35674 41.212695M554.033953 787.389413l-43.202221 9.474147M554.033953 787.389413l-18.812402 42.851079M554.033953 787.389413l-36.364997-17.14792M554.033953 787.389413l47.303781-43.578206M554.033953 787.389413l-35.083835 23.633541M554.033953 787.389413l-2.22332 49.148293M554.033953 787.389413l36.758892-26.292272M554.033953 787.389413l-48.948288 30.423235M554.033953 787.389413l24.470542 27.169995M554.033953 787.389413l17.853433-43.801263M554.033953 787.389413l4.37245 18.130221M554.033953 787.389413l-7.052012-26.827938M554.033953 787.389413l45.192304-14.222028M102.4146277 687.715053l-6.7877621-38.220596M102.4146277 687.715053l37.4543013 25.134958M102.4146277 687.715053l-35.4648841-21.73767M528.11147 317.004205l-26.98637-30.200203M528.11147 317.004205l10.184101-5.653107M528.11147 317.004205l-4.90299-20.172947M528.11147 317.004205l29.791189-3.129659M528.11147 317.004205l46.295019 30.695741M528.11147 317.004205l15.554978-18.506851M528.11147 317.004205l-3.564956-45.672212M528.11147 317.004205l.238003 16.271651M528.11147 317.004205l8.763054 23.875642M528.11147 317.004205l-20.067772-38.099602M528.11147 317.004205l-25.078843 8.592147M528.11147 317.004205l19.50816 42.012044M528.11147 317.004205l41.127377 16.081341M528.11147 317.004205l22.522813 11.036881M528.11147 317.004205l20.591687 24.79173M573.171082 943.082099l19.159534 47.966152M573.171082 943.082099l17.18768-3.947467M573.171082 943.082099l3.251708 33.750789M573.171082 943.082099l-8.401591-71.769372M573.171082 943.082099l29.502559 28.053434M991.455714 375.290651l-74.662212-23.743534M991.455714 375.290651L954.0214 346.989925M991.455714 375.290651l39.533055-17.57938M991.455714 375.290651l40.976475 13.369028M991.455714 375.290651l2.86881-21.477036M991.455714 375.290651l40.287735 40.462038M991.455714 375.290651l23.618925-25.727458M991.455714 375.290651l42.104065 1.158376M991.455714 375.290651l-22.911977 8.562667M256.152714 407.162045l-35.311045 54.73563M256.152714 407.162045l18.551708-24.320916M256.152714 407.162045l11.530356-30.882277M256.152714 407.162045l-45.164427 50.856503M256.152714 407.162045l-14.074755-11.375138M256.152714 407.162045l28.566396-56.183739M256.152714 407.162045l-27.474415-9.278609M256.152714 407.162045l-29.273619 10.421886M256.152714 407.162045l10.688111 25.724746M492.855901 179.789292l2.046749 46.831745M492.855901 179.789292l6.648846-39.800693M492.855901 179.789292l-39.531726-13.574725M492.855901 179.789292l-19.856177-6.367868M492.855901 179.789292l29.568672 56.80412M492.855901 179.789292l-28.520241 30.023217M492.855901 179.789292l21.352779-15.861216M492.855901 179.789292l-14.717078-24.008843M492.855901 179.789292l-22.63021 19.817215M492.855901 179.789292l24.706549-44.676535M492.855901 179.789292L468.82629 148.40455M492.855901 179.789292l-10.105554 36.318543M492.855901 179.789292l-36.756117-31.347743M492.855901 179.789292l25.595401-25.969104M548.703157 341.795935l-10.407586-30.444837M548.703157 341.795935l9.199502-27.921389M548.703157 341.795935l27.692628 26.770971M548.703157 341.795935l25.703332 5.904011M548.703157 341.795935l-5.036709-43.298581M548.703157 341.795935l-20.353684-8.520079M548.703157 341.795935l-11.828633-.916088M548.703157 341.795935l-45.67053-16.199583M548.703157 341.795935l-1.083527 17.220314M548.703157 341.795935l20.53569-8.710389M548.703157 341.795935l1.931126-13.754849M599.226257 773.167385l94.95258-9.326498M599.226257 773.167385l-19.181981-46.957891M599.226257 773.167385l31.217773-42.647478M599.226257 773.167385l2.111477-29.356178M599.226257 773.167385l-8.433412-12.070244M599.226257 773.167385l-20.721762 41.392023M599.226257 773.167385l-27.338871-29.579235M599.226257 773.167385l-40.819854 32.352249M599.226257 773.167385l-52.244316-12.60591M465.230031 70.7357269l3.807396 43.6949301M465.230031 70.7357269L453.37136 36.9564272M465.230031 70.7357269l-20.873547 6.8538764M465.230031 70.7357269l11.861266-7.9068216M465.230031 70.7357269l-23.138573-10.79565M465.230031 70.7357269l12.191396 21.8253411M826.692886 688.659147l88.716377 19.556526M826.692886 688.659147l38.823244 35.768941M826.692886 688.659147l-93.41582-19.115748M826.692886 688.659147l-29.129726-15.326515M550.634283 328.041086l-12.338712-16.689988M550.634283 328.041086l-27.425803-31.209828M550.634283 328.041086l7.268376-14.16654M550.634283 328.041086l25.761502 40.52582M550.634283 328.041086l23.772206 19.65886M550.634283 328.041086l-6.967835-29.543732M550.634283 328.041086l-22.28481 5.23477M550.634283 328.041086l-13.759759 12.838761M550.634283 328.041086l-47.601656-2.444734M550.634283 328.041086l-3.014653 30.975163M550.634283 328.041086l18.604564 5.04446M491.22323 821.027977l19.608502-24.164417M491.22323 821.027977l-43.527737-16.123754M491.22323 821.027977l43.998321 9.212515M491.22323 821.027977l26.445726-50.786484M491.22323 821.027977l27.726888-10.005023M491.22323 821.027977l-1.033763 23.441865M491.22323 821.027977l13.862435-3.215329M491.22323 821.027977l26.061311 45.54707M491.22323 821.027977l-20.934186-26.099491M942.569437 601.643882l-39.68842-.605843M942.569437 601.643882l20.639703 26.268988M942.569437 601.643882l1.343743-18.756387M942.569437 601.643882l42.314489-7.528821M942.569437 601.643882l22.987571 10.954858M942.569437 601.643882l19.89644-41.365302M942.569437 601.643882l22.491616-5.210305M518.451302 153.820188l-18.946555-13.831589M518.451302 153.820188l-26.155793-30.012918M518.451302 153.820188l-45.451578 19.601236M518.451302 153.820188l-4.242622 10.107888M518.451302 153.820188l-40.312479 1.960261M518.451302 153.820188l-.888852-18.707431M518.451302 153.820188l54.544707 11.013694M120.685815 562.565951l38.178781 6.406641M120.685815 562.565951l1.111272 44.406131M120.685815 562.565951l-14.23915-28.934771M120.685815 562.565951l-42.8809524-.242533M120.685815 562.565951l32.67133-38.358174M569.238847 333.085546l30.478571 11.735019M569.238847 333.085546l24.126379 54.107899M569.238847 333.085546l-30.943276-21.734448M569.238847 333.085546l-46.030367-36.254288M569.238847 333.085546l-11.336188-19.211M569.238847 333.085546l16.155806-22.458566M569.238847 333.085546l7.156938 35.48136M569.238847 333.085546l5.167642 14.6144M569.238847 333.085546l-25.572399-34.588192M569.238847 333.085546l40.711188 5.061954M569.238847 333.085546l-40.889374.19031M569.238847 333.085546l-32.364323 7.794301M569.238847 333.085546l-21.619217 25.930703M569.238847 333.085546l41.417558 37.927579M546.981941 760.561475l-36.150209 36.302085M546.981941 760.561475l33.062335-34.351981M546.981941 760.561475l-29.312985 9.680018M546.981941 760.561475l54.355793-16.750268M546.981941 760.561475l-28.031823 50.461479M546.981941 760.561475l43.810904.535666M546.981941 760.561475l24.905445-16.973325M546.981941 760.561475l11.424462 44.958159M546.981941 760.561475l48.618339-42.989909M546.981941 760.561475l-96.206685-29.281098M1065.779019 435.786805l4.15669-29.026662M1065.779019 435.786805l40.32058-3.567127M1065.779019 435.786805l42.72282 7.20193M1065.779019 435.786805l11.17858-15.746446M1065.779019 435.786805l-34.03557-20.034116M1065.779019 435.786805l-20.67729 6.330501M1065.779019 435.786805l-62.424895 20.421344M1065.779019 435.786805l23.58667 23.646842M1065.779019 435.786805l-1.23483 11.054093M1065.779019 435.786805l-19.25645-20.541556M968.543737 383.853318l-51.750235-32.306201M968.543737 383.853318L954.0214 346.989925M968.543737 383.853318l63.888452 4.806361M968.543737 383.853318l25.780787-30.039703M968.543737 383.853318L867.525232 437.64431M968.543737 383.853318l65.016042-7.404291M210.935483 711.22965l21.893426-32.535472M210.935483 711.22965l-15.139392-48.555614M210.935483 711.22965l49.055135 36.283668M210.935483 711.22965l-37.419106-29.485759M210.935483 711.22965l5.739179 26.512928M210.935483 711.22965l39.356495 3.174902M210.935483 711.22965l3.556601 37.650058M210.935483 711.22965l10.826885-22.686822M210.935483 711.22965l-35.381557 19.348961M210.935483 711.22965l-3.154132-36.549517M210.935483 711.22965l-27.407202 10.367388M934.589565 736.286835l34.621714-43.4509M934.589565 736.286835l-19.180302-28.071162M934.589565 736.286835l-35.36826 25.464278M934.589565 736.286835l-48.845212 18.318935M934.589565 736.286835l-39.214638 9.740003M934.589565 736.286835l22.295307-50.286308M934.589565 736.286835l-8.371081-9.439114M845.197579 873.499181l21.682626-5.116769M845.197579 873.499181l-32.90503 37.830318M845.197579 873.499181l5.451338-49.436484M845.197579 873.499181l2.709258-24.939159M845.197579 873.499181l-19.376568.934007M845.197579 873.499181l12.382517 22.754364M845.197579 873.499181l-4.740369 23.435497M1171.482249 426.045193l-45.98101-18.215875M1171.482249 426.045193l8.5802 35.622016M1171.482249 426.045193l-11.13107-30.010702M1171.482249 426.045193l-3.22671 28.777008M1171.482249 426.045193l10.85839 21.603591M1171.482249 426.045193l17.23867 4.848285M1171.482249 426.045193l-14.80456-3.771372M1171.482249 426.045193l-2.43523-17.079758M1171.482249 426.045193l-25.5684 10.178902M1171.482249 426.045193l-22.0585 28.683614M394.160881 725.233684l39.816286-10.288522M394.160881 725.233684l-11.379504-50.520146M394.160881 725.233684l.604324-18.684757M394.160881 725.233684l34.132545 4.377908M394.160881 725.233684l-28.772128.165194M394.160881 725.233684l8.544826-32.649569M394.160881 725.233684l-4.091877-10.101238M394.160881 725.233684l11.45955 1.999504M394.160881 725.233684l33.092763-23.147416M394.160881 725.233684l-25.768731-33.552813M394.160881 725.233684l-44.273551-22.436861M394.160881 725.233684l-30.461116-10.244813M394.160881 725.233684l-21.05322 29.714386M394.160881 725.233684l56.614375 6.046693M456.099784 148.441549l36.195725-24.634279M456.099784 148.441549l-15.680274-44.7661295M456.099784 148.441549l12.937643-34.010892M456.099784 148.441549l-2.775609 17.773018M456.099784 148.441549l16.89994 24.979875M456.099784 148.441549l22.039039 7.3389M456.099784 148.441549l14.125907 51.164958M456.099784 148.441549l-18.226756-23.218158M456.099784 148.441549l12.726506-.036999M456.099784 148.441549l-14.253438 32.472949M456.099784 148.441549l9.691135-19.764008M456.099784 148.441549l-18.098352-9.673446M450.775256 731.280377l66.8937 38.961116M450.775256 731.280377l-16.798089-16.335215M450.775256 731.280377l-56.010051-24.73145M450.775256 731.280377l-22.48183-1.668785M450.775256 731.280377l-48.069549-38.696262M450.775256 731.280377l-60.706252-16.147931M450.775256 731.280377l-45.154825-4.047189M450.775256 731.280377l-23.521612-29.194109M450.775256 731.280377l52.78956-7.303144M153.357145 524.207777l5.507451 44.764815M153.357145 524.207777l33.793159-6.344312M153.357145 524.207777l42.356731-43.354191M153.357145 524.207777l-46.91048 9.423403M153.357145 524.207777l30.122035-19.876203M373.107661 754.94807l-57.566379 5.192852M373.107661 754.94807l74.587832 49.956153M373.107661 754.94807l-30.180285-32.027732M373.107661 754.94807l-40.098887-18.375324M373.107661 754.94807l-54.136858-35.754082M373.107661 754.94807l-7.718908-29.549192M373.107661 754.94807l32.51277-27.714882M373.107661 754.94807l97.181383 39.980416M373.107661 754.94807l-9.407896-39.959199M595.60028 717.571566l-15.556004 8.637928M595.60028 717.571566l34.84375 12.948341M595.60028 717.571566l5.737454 26.239641M595.60028 717.571566l57.784577 2.137079M595.60028 717.571566l44.739633-55.120286M595.60028 717.571566l-4.807435 43.525575M595.60028 717.571566l34.495613-24.13796M595.60028 717.571566l-23.712894 26.016584M595.60028 717.571566l-92.035464 6.405667M133.439749 620.222529l-37.8128834 29.271928M133.439749 620.222529l41.857297-17.888684M133.439749 620.222529l37.906294 26.931027M133.439749 620.222529l25.424847-51.249937M133.439749 620.222529l35.954916-1.645926M133.439749 620.222529l-11.642662-13.250447M133.439749 620.222529l14.887262 19.89226M133.439749 620.222529l-53.927536 11.560797M133.439749 620.222529l23.278747-15.814704M77.8048626 562.323418l-22.5399284 36.595543M77.8048626 562.323418l28.6418024-28.692238M234.756588 318.267055l7.750251 31.713573M234.756588 318.267055l24.209274-33.944752M234.756588 318.267055l-10.141887 42.159975M234.756588 318.267055l17.633505-9.537357M234.756588 318.267055l4.901137-46.028554M234.756588 318.267055l22.502578 7.125012M234.756588 318.267055l-11.388427-6.04615M234.756588 318.267055l-15.743386 18.894052M234.756588 318.267055l33.813849-1.929629M234.756588 318.267055l.863742-22.139258M235.62033 296.127797l6.886509 53.852831M235.62033 296.127797l23.345532-11.805494M235.62033 296.127797l16.769763 12.601901M235.62033 296.127797l19.666781-43.973957M235.62033 296.127797l4.037395-23.889296M235.62033 296.127797l21.638836 29.26427M235.62033 296.127797l-12.252169 16.093108M235.62033 296.127797l32.950107 20.209629M1122.883379 550.047786l-31.84935 39.329655M1122.883379 550.047786l-57.52417 27.389102M1122.883379 550.047786l-29.28779 17.495699M1122.883379 550.047786l-6.77951-23.268762M1122.883379 550.047786l5.46849-21.457285M1122.883379 550.047786l34.46278-28.696718M1122.883379 550.047786l4.62753 10.155722M1122.883379 550.047786l11.77213-36.603778M1122.883379 550.047786l39.17209-17.191341M1122.883379 550.047786l19.53146-14.062653M1122.883379 550.047786l25.01094-35.590294M1122.883379 550.047786l-19.71601 1.569647M562.120182 430.22455l-31.921624 107.017814M562.120182 430.22455l10.696244 19.429876M562.120182 430.22455l14.275603-61.657644M562.120182 430.22455l41.690223 48.307394M562.120182 430.22455l32.35119-12.278927M562.120182 430.22455l-14.500552-71.208301M477.421427 92.561068l22.08332 47.427531M477.421427 92.561068l14.874082 31.246202M477.421427 92.561068l-8.384 21.869589M477.421427 92.561068l-33.064943-14.9714647M477.421427 92.561068l-.33013-29.7321627M477.421427 92.561068l-11.630508 36.116473M477.421427 92.561068l-35.329969-32.6209911M47.7653836 670.46003l-26.7073359 16.641977M47.7653836 670.46003l47.861482-20.965573M47.7653836 670.46003l19.18436-4.482647M47.7653836 670.46003l-25.7322858-14.452519M47.7653836 670.46003l-42.00659305-1.7525M47.7653836 670.46003l31.7468294-38.676704M47.7653836 670.46003l.2964829-17.923612M610.656405 371.013125l12.043692-13.477713M610.656405 371.013125l-10.938987-26.19256M610.656405 371.013125l-17.291179 16.18032M610.656405 371.013125l-34.26062-2.446219M610.656405 371.013125l-16.185033 46.932498M610.656405 371.013125l-36.249916-23.313179M610.656405 371.013125l-.70637-32.865625M610.656405 371.013125l1.506753 22.612129M610.656405 371.013125l43.230234-6.018175M925.197523 320.036049l-8.404021 31.511068M925.197523 320.036049l28.823877 26.953876M925.197523 320.036049l69.127001 33.777566M925.197523 320.036049l-85.001667-25.289716M925.197523 320.036049l89.877116 29.527144M925.197523 320.036049l-72.474851-49.243595M1127.849649 386.518927l-2.34841 21.310391M1127.849649 386.518927l32.50153 9.515564M1127.849649 386.518927l-22.52464 19.293348M1127.849649 386.518927l-31.64388-16.42054M1127.849649 386.518927l-31.79511-2.591692M1127.849649 386.518927l28.82804 35.754894M1127.849649 386.518927l41.19737 22.446508M1127.849649 386.518927l-37.98326-38.10347M1127.849649 386.518927l-55.65189-12.257623M1127.849649 386.518927l18.0642 49.705168M545.368287 952.002613l-33.826409-30.647274M545.368287 952.002613l38.125876 9.355388M545.368287 952.002613l19.171107 37.211127M545.368287 952.002613l-23.396142-10.258534M545.368287 952.002613l-18.067876 8.294814M545.368287 952.002613l-1.525394-39.061187M545.368287 952.002613l31.054503 24.830275M545.368287 952.002613l-18.623248-33.69577M545.368287 952.002613l-47.762599-10.312117M965.061053 596.433577l-62.180036 4.604462M965.061053 596.433577l-1.851913 31.479293M965.061053 596.433577l-21.147873-13.546082M965.061053 596.433577l19.822873-2.318516M965.061053 596.433577l.495955 16.165163M965.061053 596.433577l-2.595176-36.154997M965.061053 596.433577l49.836516 25.931657M602.673641 971.135533l-19.179478-9.777532M602.673641 971.135533l-38.134247 18.078207M602.673641 971.135533l16.772688 15.428405M602.673641 971.135533l-10.343025 19.912718M602.673641 971.135533l-12.314879-32.000901M602.673641 971.135533l-26.250851 5.697355M379.693849 404.661991l-55.820112-54.672894M379.693849 404.661991l123.338778-79.065639M442.091458 59.9400769l-1.671948 43.7353426M442.091458 59.9400769l-23.08578 30.3403357M442.091458 59.9400769l-25.999359-10.8975118M442.091458 59.9400769l11.279902-22.9836497M442.091458 59.9400769l2.265026 17.6495264M442.091458 59.9400769l-14.20798-30.3958309M442.091458 59.9400769l34.999839 2.8888284M862.860272 780.7682l-10.410158-12.808252M862.860272 780.7682l36.361033-19.017087M862.860272 780.7682l-57.047097 6.635496M862.860272 780.7682l-.488754 18.605524M862.860272 780.7682l22.884081-26.16243M862.860272 780.7682l32.514655-34.741362M862.860272 780.7682l-12.211355 43.294497M862.860272 780.7682l32.65335 3.932877M862.860272 780.7682l-27.304326 21.843302M862.860272 780.7682l17.290723 10.492316M183.47918 504.331574l-1.60375 53.459986M183.47918 504.331574l28.977452 14.776989M183.47918 504.331574l-24.614584 64.641018M183.47918 504.331574l19.459927 12.250545M183.47918 504.331574l3.671124 13.531891M183.47918 504.331574l37.362489-42.433899M183.47918 504.331574l27.509107-46.313026M183.47918 504.331574l12.234696-23.477988M773.113204 615.563969l-37.455471 3.192896M773.113204 615.563969l-39.836138 53.97943M773.113204 615.563969l-52.100497-10.898625M773.113204 615.563969l24.449956 57.768663M773.113204 615.563969l-45.438593-27.520127M773.113204 615.563969l4.296724-17.581792M773.113204 615.563969l129.767813-14.52593M773.113204 615.563969l-23.266071-49.137205M773.113204 615.563969l-58.082965-20.478114M315.401842 332.684798l7.709196-27.774776M315.401842 332.684798l35.281998-16.05215M315.401842 332.684798l-40.69742 50.156331M315.401842 332.684798l-47.718772 43.59497M315.401842 332.684798l8.471895 17.304299M315.401842 332.684798l-30.682732 18.293508M315.401842 332.684798l66.914266-43.629329M315.401842 332.684798l77.897102-58.104503M1033.559779 376.449027l33.49893-22.694728M1033.559779 376.449027l36.37593 30.311116M1033.559779 376.449027l-2.57101-18.737756M1033.559779 376.449027l18.68822-30.980099M1033.559779 376.449027l-1.12759 12.210652M1033.559779 376.449027l-39.235255-22.635412M1033.559779 376.449027l-1.81633 39.303662M1033.559779 376.449027l-18.48514-26.885834M1033.559779 376.449027l8.44785-38.483369M1033.559779 376.449027l43.57872 16.080676M1033.559779 376.449027l38.63798-2.187723M1033.559779 376.449027l19.45668-10.421659M1033.559779 376.449027l12.96279 38.796222M1103.167369 551.617433l-12.13334 37.760008M1103.167369 551.617433l-37.80816 25.819455M1103.167369 551.617433l-9.57178 15.926052M1103.167369 551.617433l12.9365-24.838409M1103.167369 551.617433l25.1845-23.026932M1103.167369 551.617433l-26.12217 43.27035M1103.167369 551.617433l24.34354 8.586075M1103.167369 551.617433l31.48814-38.173425M1103.167369 551.617433l39.24747-15.6323M653.888703 313.534513l98.904972 12.725845M653.888703 313.534513l-68.49405-2.907533M653.888703 313.534513l10.515231 17.407538M653.888703 313.534513l51.629011 2.138146M653.888703 313.534513l-55.347795-17.025602M653.888703 313.534513L609.950035 338.1475M653.888703 313.534513l-9.616693 13.290482M653.888703 313.534513l-.002064 51.460437M564.769491 871.312727l-29.54794-41.072235M564.769491 871.312727l25.589271 67.821905M564.769491 871.312727l-20.926598 41.628699M564.769491 871.312727l-12.958858-34.775021M564.769491 871.312727l13.735004-56.753319M564.769491 871.312727l-6.363088-65.793093M480.878855 241.045217l14.023795-14.42418M480.878855 241.045217l-17.337809 18.360828M480.878855 241.045217l20.246245 45.758785M480.878855 241.045217l-33.823188-8.327826M480.878855 241.045217l3.222555 11.1672M480.878855 241.045217l-9.780778 5.10623M480.878855 241.045217l-50.647983 23.643516M480.878855 241.045217l41.545718-4.451805M480.878855 241.045217l-16.543195-31.232708M480.878855 241.045217l-10.653164-41.43871M480.878855 241.045217l-31.216444-23.335405M480.878855 241.045217l43.667659 30.286776M480.878855 241.045217l1.871492-24.937382M480.878855 241.045217l-48.477257 7.232382M480.878855 241.045217l27.164843 37.859386M1046.522569 415.245249l23.41314-8.485106M1046.522569 415.245249l-14.09038-26.58557M1046.522569 415.245249l30.43503 4.79511M1046.522569 415.245249l-14.77912.50744M1046.522569 415.245249l-1.42084 26.872057M1046.522569 415.245249l-43.168445 40.9629M1046.522569 415.245249l30.61593-22.715546M1046.522569 415.245249l18.02162 31.595649M268.570437 316.337426l-26.063598 33.643202M268.570437 316.337426l-9.604575-32.015123M268.570437 316.337426l54.540601-11.427404M268.570437 316.337426l16.148673 34.64088M268.570437 316.337426l-11.311271 9.054641M268.570437 316.337426l-45.202276-4.116521M974.580068 659.608562l-5.368789 33.227373M974.580068 659.608562l-59.170805 48.607111M974.580068 659.608562l-17.695196 26.391965M974.580068 659.608562l-14.286275 2.625618M974.580068 659.608562L963.20914 627.91287M974.580068 659.608562l-9.02306-47.009822M974.580068 659.608562l40.317501-37.243328M547.61963 359.016249l-9.324059-47.665151M547.61963 359.016249l10.283029-45.141703M547.61963 359.016249l28.776155 9.550657M547.61963 359.016249l26.786859-11.316303M547.61963 359.016249l-19.270157-25.740393M547.61963 359.016249l-10.745106-18.136402M363.699765 714.988871l-20.772389 7.931467M363.699765 714.988871l19.081612-40.275333M363.699765 714.988871l-30.690991 21.583875M363.699765 714.988871l31.06544-8.439944M363.699765 714.988871l-44.728962 4.205117M363.699765 714.988871l1.688988 10.410007M363.699765 714.988871l39.005942-22.404756M363.699765 714.988871l26.369239.143575M363.699765 714.988871l41.920666 12.244317M363.699765 714.988871l4.692385-23.308M363.699765 714.988871l-13.812435-12.192048M1014.897569 622.365234l-45.68629 70.470701M1014.897569 622.365234l76.13646-32.987793M1014.897569 622.365234l50.46164-44.928346M1014.897569 622.365234l78.69802-54.821749M1014.897569 622.365234l62.14763-27.477451M1014.897569 622.365234l-58.012697 63.635293M1014.897569 622.365234l-54.603776 39.868946M1014.897569 622.365234l-51.688429 5.547636M1014.897569 622.365234l-30.013643-28.250173M1014.897569 622.365234l-49.340561-9.766494M503.032627 325.596352l-1.907527-38.79235M503.032627 325.596352l35.262944-14.245254M503.032627 325.596352l20.175853-28.765094M503.032627 325.596352l40.633821-27.098998M503.032627 325.596352l25.316846 7.679504M503.032627 325.596352l33.841897 15.283495M503.032627 325.596352l5.011071-46.691749M503.564816 723.977233l76.47946 2.232261M503.564816 723.977233l-69.587649-9.032071M503.564816 723.977233l-75.27139 5.634359M503.564816 723.977233l68.32257 19.610917M503.564816 723.977233l-76.311172-21.890965M508.043698 278.904603l-44.502652-19.498558M508.043698 278.904603l-6.918598 7.899399M508.043698 278.904603l30.251873 32.446495M508.043698 278.904603l15.164782 17.926655M508.043698 278.904603l-23.942288-26.692186M508.043698 278.904603l-36.945621-32.753156M508.043698 278.904603l49.858961 34.969943M508.043698 278.904603l35.62275 19.592751M508.043698 278.904603l16.502816-7.57261M390.076385 76.8995554l28.929293 13.3808572M390.076385 76.8995554l14.04976 46.0854046M390.076385 76.8995554l16.795062 32.3725556M390.076385 76.8995554l-.363141-44.6846559M390.076385 76.8995554l-3.85373 31.2854396M1149.423749 454.728807l-23.92251-46.899489M1149.423749 454.728807l-43.32415-22.509129M1149.423749 454.728807l24.57928 44.302186M1149.423749 454.728807l30.6387 6.938402M1149.423749 454.728807l-40.92191-11.740072M1149.423749 454.728807l18.83179.093394M1149.423749 454.728807l32.91689-7.080023M1149.423749 454.728807l39.29717-23.835329M1149.423749 454.728807l43.83868 18.685661M1149.423749 454.728807l4.87315 33.311747M1149.423749 454.728807l7.25394-32.454986M1149.423749 454.728807l15.5587 28.078657M1149.423749 454.728807l-21.39431 31.538249M1149.423749 454.728807l-3.5099-18.504712M438.001432 138.768103l2.418078-35.0926835M438.001432 138.768103l31.035995-24.337446M438.001432 138.768103l-18.995754-48.4876904M438.001432 138.768103l15.322743 27.446464M438.001432 138.768103l-33.875287-15.783143M438.001432 138.768103l34.998292 34.653321M438.001432 138.768103l-31.129985-29.495992M438.001432 138.768103l40.137391 17.012346M438.001432 138.768103l-.128404-13.544712M438.001432 138.768103l30.824858 9.636447M438.001432 138.768103l3.844914 42.146395M438.001432 138.768103l27.789487-10.090562M962.465877 560.27858l-59.58486 40.759459M962.465877 560.27858l40.888247-104.070431M962.465877 560.27858l-18.552697 22.608915M962.465877 560.27858l22.418049 33.836481M962.465877 560.27858l3.091131 52.32016M1145.913849 436.224095l-20.41261-28.394777M1145.913849 436.224095l-39.81425-4.004417M1145.913849 436.224095l34.1486 25.443114M1145.913849 436.224095l14.43733-40.189604M1145.913849 436.224095l-37.41201 6.76464M1145.913849 436.224095l22.34169 18.598106M1145.913849 436.224095l-40.58884-30.41182M1145.913849 436.224095l36.42679 11.424689M1145.913849 436.224095l42.80707-5.330617M1145.913849 436.224095l8.38305 51.816459M1145.913849 436.224095l10.76384-13.950274M1145.913849 436.224095l19.0686 46.583369M1145.913849 436.224095l23.13317-27.25866M266.840825 432.886791l7.863597-50.045662M266.840825 432.886791l.842245-56.607023M266.840825 432.886791l-24.762866-37.099884M266.840825 432.886791l18.46803 92.503083M359.917185 613.868261l22.864192 60.845277M359.917185 613.868261L313.11853 624.62805M359.917185 613.868261l-16.460431-13.724639M359.917185 613.868261l-3.218239 12.532256M359.917185 613.868261l41.943105 15.59177M359.917185 613.868261l-5.253287 30.181357M359.917185 613.868261l-38.805168-21.829631M359.917185 613.868261l15.279601 3.318134M359.917185 613.868261l-19.434127 10.538198M340.483058 624.406459l-27.364528.221591M340.483058 624.406459l2.973696-24.262837M340.483058 624.406459l16.215888 1.994058M340.483058 624.406459l61.377232 5.053572M340.483058 624.406459l14.18084 19.643159M340.483058 624.406459l-19.371041-32.367829M340.483058 624.406459l34.713728-7.220064M465.790919 128.677541l33.713828 11.311058M465.790919 128.677541l26.50459-4.870271M465.790919 128.677541l-25.371409-25.0021215M465.790919 128.677541l3.246508-14.246884M465.790919 128.677541l-12.466744 37.537026M465.790919 128.677541l7.208805 44.743883M465.790919 128.677541l12.347904 27.102908M465.790919 128.677541l-27.917891-3.45415M465.790919 128.677541l3.035371 19.727009M470.289044 794.928486l40.542688 1.935074M470.289044 794.928486l-22.593551 9.975737M470.289044 794.928486l47.379912-24.686993M470.289044 794.928486l48.661074 16.094468M470.289044 794.928486l19.900423 49.541356M470.289044 794.928486l34.796621 22.884162M276.455783 841.515065l26.325276-13.290266M276.455783 841.515065l5.632681-31.790622M1147.894319 514.457492l-31.79045 12.321532M1147.894319 514.457492l-19.54245 14.133009M1147.894319 514.457492l9.45184 6.893576M1147.894319 514.457492l26.10871-15.426499M1147.894319 514.457492l-20.38341 45.746016M1147.894319 514.457492l-13.23881-1.013484M1147.894319 514.457492l14.16115 18.398953M1147.894319 514.457492l-5.47948 21.527641M1147.894319 514.457492l6.40258-26.416938M1147.894319 514.457492l17.08813-31.650028M1147.894319 514.457492l-19.86488-28.190436M393.298944 274.580295l70.242102-15.17425M393.298944 274.580295l53.756723-41.862904M393.298944 274.580295l-27.423441-16.884347M393.298944 274.580295l-70.187906 30.329727M393.298944 274.580295l15.96999-39.189417M393.298944 274.580295l-42.615104 42.052353M393.298944 274.580295l36.931928-9.891562M393.298944 274.580295l-10.982836 14.475174M393.298944 274.580295l39.102654-26.302696M477.091297 62.8289053l-8.05387 51.6017517M477.091297 62.8289053L453.37136 36.9564272M477.091297 62.8289053l-32.734813 14.760698M840.45721 896.934678l26.422995-28.552266M840.45721 896.934678l-28.164661 14.394821M840.45721 896.934678l7.449627-48.374656M840.45721 896.934678l-14.636199-22.50149M840.45721 896.934678l17.122886-.681133M653.886639 364.99495l-31.186542-7.459538M653.886639 364.99495l-54.169221-20.174385M653.886639 364.99495l88.504704 69.337981M653.886639 364.99495l10.517295-34.052899M653.886639 364.99495l-43.936604-26.84745M653.886639 364.99495l-9.614629-38.169955M751.149297 527.13531l23.426878-29.90519M751.149297 527.13531l-23.474686 60.908532M751.149297 527.13531l-18.892203-35.324458M751.149297 527.13531l7.086902-56.887644M751.149297 527.13531l-1.302164 39.291454M751.149297 527.13531l-14.80609 16.121277M965.557008 612.59874l-62.675991-11.560701M965.557008 612.59874l-2.347868 15.31413M965.557008 612.59874l-21.643828-29.711245M965.557008 612.59874l19.326918-18.483679M432.401598 248.277599l31.139448 11.128446M432.401598 248.277599l14.654069-15.560208M432.401598 248.277599l-66.526095 9.418349M432.401598 248.277599l51.699812 3.934818M432.401598 248.277599l-23.132664-12.886721M432.401598 248.277599l38.696479-2.126152M432.401598 248.277599l-2.170726 16.411134M432.401598 248.277599l31.934062-38.46509M432.401598 248.277599l17.260813-30.567787M432.401598 248.277599l-50.08549 40.77787M558.406403 805.519634l-47.574671-8.656074M558.406403 805.519634l-23.184852 24.720858M558.406403 805.519634l-39.456285 5.50332M558.406403 805.519634l-6.59577 31.018072M558.406403 805.519634l32.386442-44.422493M558.406403 805.519634l20.098092 9.039774M183.528281 721.597038l10.02216 41.303793M183.528281 721.597038l-9.616557 30.532348M183.528281 721.597038l-43.659352-8.747027M183.528281 721.597038l-10.011904-39.853147M183.528281 721.597038l33.146381 16.14554M183.528281 721.597038l30.963803 27.28267M183.528281 721.597038l-7.974355 8.981573M349.88733 702.796823l-6.959954 20.123515M349.88733 702.796823l32.894047-28.083285M349.88733 702.796823l-16.878556 33.775923M349.88733 702.796823l44.877875 3.752104M349.88733 702.796823l-30.916527 16.397165M349.88733 702.796823l15.501423 22.602055M349.88733 702.796823l52.818377-10.212708M349.88733 702.796823l40.181674 12.335623M349.88733 702.796823l-68.114103-8.082297M349.88733 702.796823l18.50482-11.115952M867.525232 437.64431l-125.133889-3.311379M867.525232 437.64431l-92.949057 59.58581M867.525232 437.64431l135.828892 18.563839M867.525232 437.64431l-109.289033 32.603356M1053.016459 366.027368l14.04225-12.273069M1053.016459 366.027368l-22.02769-8.316097M1053.016459 366.027368l-.76846-20.55844M1053.016459 366.027368l-20.58427 22.632311M1053.016459 366.027368l-58.691935-12.213753M1053.016459 366.027368l43.18931 4.071019M1053.016459 366.027368l43.03808 17.899867M1053.016459 366.027368l-37.94182-16.464175M1053.016459 366.027368l-11.00883-28.06171M1053.016459 366.027368l36.84993-17.611911M1053.016459 366.027368l24.12204 26.502335M1053.016459 366.027368l19.1813 8.233936M536.874524 340.879847l1.421047-29.528749M536.874524 340.879847l-13.666044-44.048589M536.874524 340.879847l21.028135-27.005301M536.874524 340.879847l39.521261 27.687059M536.874524 340.879847l37.531965 6.820099M536.874524 340.879847l6.791924-42.382493M536.874524 340.879847l-8.525051-7.603991M279.515349 789.137987l36.025933-28.997065M279.515349 789.137987l23.26571 39.086812M279.515349 789.137987l-19.524731-41.624669M279.515349 789.137987l-36.43721-16.965998M279.515349 789.137987l2.573115 20.586456M279.515349 789.137987l13.159478-13.639582M279.515349 789.137987l2.184396-25.728881M279.515349 789.137987l51.014391 6.343412M612.163158 393.625254l10.536939-36.089842M612.163158 393.625254l-1.012438 60.281771M612.163158 393.625254l-12.44574-48.804689M612.163158 393.625254l-18.797932-6.431809M612.163158 393.625254l-35.767373-25.058348M612.163158 393.625254l-8.352753 84.90669M612.163158 393.625254l-17.691786 24.320369M612.163158 393.625254l-37.756669-45.925308M612.163158 393.625254l-2.213123-55.477754M528.349473 333.275856l9.946098-21.924758M528.349473 333.275856l-5.140993-36.444598M528.349473 333.275856l29.553186-19.40131M528.349473 333.275856l46.057016 14.42409M528.349473 333.275856l15.316975-34.778502M330.52974 795.481399l-14.988458-35.340477M330.52974 795.481399l117.165753 9.422824M330.52974 795.481399l-27.748681 32.7434M330.52974 795.481399l-48.441276 14.243044M330.52974 795.481399l-37.854913-19.982994M330.52974 795.481399l-48.829995-32.072293M1072.197759 374.261304l53.30348 33.568014M1072.197759 374.261304l-5.13905-20.507005M1072.197759 374.261304l-2.26205 32.498839M1072.197759 374.261304l-41.20899-16.550033M1072.197759 374.261304l-19.94976-28.792376M1072.197759 374.261304l-39.76557 14.398375M1072.197759 374.261304l33.12725 31.550971M1072.197759 374.261304l24.00801-4.162917M1072.197759 374.261304l23.85678 9.665931M1072.197759 374.261304l-57.12312-24.698111M1072.197759 374.261304l-30.19013-36.295646M1072.197759 374.261304l17.66863-25.845847M1072.197759 374.261304l4.94074 18.268399M368.39215 691.680871l-25.464774 31.239467M368.39215 691.680871l14.389227-16.967333M368.39215 691.680871l26.373055 14.868056M368.39215 691.680871l-3.003397 33.718007M368.39215 691.680871l34.313557.903244M368.39215 691.680871l21.676854 23.451575M368.39215 691.680871l-13.728252-47.631253M281.699745 763.409106l33.841537-3.268184M281.699745 763.409106l-21.709127-15.895788M281.699745 763.409106l-31.407767-49.004554M281.699745 763.409106l-38.621606 8.762883M281.699745 763.409106l.388719 46.315337M281.699745 763.409106l10.975082 12.089299M427.253644 702.086268l6.723523 12.858894M427.253644 702.086268l-44.472267-27.37273M427.253644 702.086268l-32.488439 4.462659M427.253644 702.086268l1.039782 27.525324M427.253644 702.086268l-24.547937-9.502153M427.253644 702.086268l-37.18464 13.046178M427.253644 702.086268l-21.633213 25.14692M1064.544189 446.840898l5.39152-40.080755M1064.544189 446.840898l41.55541-14.62122M1064.544189 446.840898l43.95765-3.852163M1064.544189 446.840898l12.41341-26.800539M1064.544189 446.840898l-32.80074-31.088209M1064.544189 446.840898l-19.44246-4.723592M1064.544189 446.840898l-61.190065 9.367251M1064.544189 446.840898l24.8215 12.592749M382.316108 289.055469l81.224938-29.649424M382.316108 289.055469l-16.440605-31.359521M382.316108 289.055469l-59.20507 15.854553M382.316108 289.055469l26.952826-53.664591M382.316108 289.055469l-31.632268 27.577179M382.316108 289.055469l47.914764-24.366736M382.316108 289.055469l-58.442371 60.933628M1077.138499 392.529703l48.36274 15.299615M1077.138499 392.529703l-10.07979-38.775404M1077.138499 392.529703l-7.20279 14.23044M1077.138499 392.529703l-44.70631-3.870024M1077.138499 392.529703l28.9611 39.689975M1077.138499 392.529703l-.1809 27.510656M1077.138499 392.529703l28.18651 13.282572M1077.138499 392.529703l19.06727-22.431316M1077.138499 392.529703l18.91604-8.602468M1128.029439 486.267056l-21.92984-54.047378M1128.029439 486.267056l-11.92557 40.511968M1128.029439 486.267056l.32243 42.323445M1128.029439 486.267056l29.31672 35.084012M1128.029439 486.267056l-19.5276-43.278321M1128.029439 486.267056l6.62607 27.176952M1128.029439 486.267056l14.3854 49.718077M1128.029439 486.267056l-38.66375-26.833409M1128.029439 486.267056l26.26746 1.773498M1128.029439 486.267056l36.95301-3.459592M1089.866389 348.415457l-22.80768 5.338842M1089.866389 348.415457l-37.61839-2.946529M1089.866389 348.415457l6.33938 21.68293M1089.866389 348.415457l6.18815 35.511778M1089.866389 348.415457l-47.85876-10.449799M644.27201 326.824995l-21.571913 30.710417M644.27201 326.824995l108.521665-.564637M644.27201 326.824995l-44.554592 17.99557M644.27201 326.824995l-58.877357-16.198015M644.27201 326.824995l20.131924 4.117056M644.27201 326.824995l61.245704-11.152336M644.27201 326.824995l-45.731102-30.316084M644.27201 326.824995L609.950035 338.1475M517.284541 866.575047l-5.742663 54.780292M517.284541 866.575047l17.93701-36.334555M517.284541 866.575047l-8.715629 32.736791M517.284541 866.575047l1.665577-55.552093M517.284541 866.575047l26.558352 46.366379M517.284541 866.575047l-27.095074-22.105205M517.284541 866.575047l9.460498 51.731796M517.284541 866.575047l34.526092-30.037341M517.284541 866.575047l-25.352609 33.846361M517.284541 866.575047l-12.198876-48.762399M427.883478 29.544246l-11.791379 19.4983191M427.883478 29.544246l25.487882 7.4121812M427.883478 29.544246l-38.170234 2.6706535M427.883478 29.544246L405.889055 6.51797117M427.883478 29.544246l16.473006 48.0453573M984.883926 594.115061l80.475283-16.678173M984.883926 594.115061l-82.002909 6.922978M984.883926 594.115061L963.20914 627.91287M984.883926 594.115061l-40.970746-11.227566M405.620431 727.233188l28.356736-12.288026M405.620431 727.233188l-22.839054-52.51965M405.620431 727.233188l-10.855226-20.684261M405.620431 727.233188l22.672995 2.378404M405.620431 727.233188l-40.231678-1.83431M405.620431 727.233188l-2.914724-34.649073M405.620431 727.233188l-15.551427-12.100742M482.750347 216.107835l12.152303 10.513202M482.750347 216.107835l-19.209301 43.29821M482.750347 216.107835l-35.69468 16.609556M482.750347 216.107835l1.351063 36.104582M482.750347 216.107835l-9.750623-42.686411M482.750347 216.107835l-11.65227 30.043612M482.750347 216.107835l39.674226 20.485577M482.750347 216.107835l-18.414687-6.295326M482.750347 216.107835l-12.524656-16.501328M482.750347 216.107835l-33.087936 1.601977M1169.047019 408.965435l-43.54578-1.136117M1169.047019 408.965435l-8.69584-12.930944M1169.047019 408.965435l-.79148 45.856766M1169.047019 408.965435l13.29362 38.683349M1169.047019 408.965435l19.6739 21.928043M1169.047019 408.965435l-12.36933 13.308386M186.927527 347.606303l37.687174 12.820727M186.927527 347.606303l-37.468878-17.725675M186.927527 347.606303l22.683546 28.540474M186.927527 347.606303l32.085675-10.445196M285.308855 525.389874l35.803162 66.648756M736.343207 543.256587l-15.3305 61.408757M736.343207 543.256587l38.232968-46.026467M736.343207 543.256587l-8.668596 44.787255M736.343207 543.256587l-4.086113-51.445735M736.343207 543.256587l21.892992-73.008921M736.343207 543.256587l13.503926 23.170177M736.343207 543.256587l-21.312968 51.829268M524.546514 271.331993l-29.643864-44.710956M524.546514 271.331993l-61.005468-11.925948M524.546514 271.331993L501.1251 286.804002M524.546514 271.331993l13.749057 40.019105M524.546514 271.331993l-1.338034 25.499265M524.546514 271.331993l-40.445104-19.119576M524.546514 271.331993l-53.448437-25.180546M524.546514 271.331993l33.356145 42.542553M524.546514 271.331993l-2.121941-34.738581M524.546514 271.331993l60.848139 39.294987M524.546514 271.331993l19.119934 27.165361M524.546514 271.331993l73.994394 25.176918M1164.982449 482.807464l-7.63629 38.543604M1164.982449 482.807464l9.02058 16.223529M1164.982449 482.807464l15.08-21.140255M1164.982449 482.807464l3.27309-27.985263M1164.982449 482.807464l-30.32694 30.636544M1164.982449 482.807464l17.35819-35.15868M1164.982449 482.807464l-2.92698 50.048981M1164.982449 482.807464l28.27998-9.392996M1164.982449 482.807464l-10.68555 5.23309M1156.677689 422.273821l-31.17645-14.444503M1156.677689 422.273821l23.38476 39.393388M1156.677689 422.273821l3.67349-26.23933M1156.677689 422.273821l11.57785 32.54838M1156.677689 422.273821l25.66295 25.374963M1156.677689 422.273821l32.04323 8.619657M375.196786 617.186395l7.584591 57.527143M375.196786 617.186395l-31.740032-17.042773M375.196786 617.186395l-18.49784 9.214122M375.196786 617.186395l26.663504 12.273636M375.196786 617.186395l54.502138 13.053622M375.196786 617.186395l-20.532888 26.863223M375.196786 617.186395l-54.084769-25.147765M199.92803 635.819369l32.900879 42.874809M199.92803 635.819369l-24.630984-33.485524M199.92803 635.819369l1.550186-45.358657M199.92803 635.819369l-8.184643-65.326512M199.92803 635.819369l-28.581987 11.334187M199.92803 635.819369l15.598522-44.485396M199.92803 635.819369l-4.131939 26.854667M199.92803 635.819369l-30.533365-17.242766M199.92803 635.819369l-51.601019 4.29542M199.92803 635.819369l39.238181 32.728316M199.92803 635.819369l41.319308-6.825601M199.92803 635.819369l28.80375 21.672812M199.92803 635.819369l21.834338 52.723459M199.92803 635.819369l-43.209534-31.411544M199.92803 635.819369l7.853321 38.860764M670.118669 586.61753l.223092 22.910088M670.118669 586.61753l50.894038 18.047814M670.118669 586.61753l17.039383 46.213628M670.118669 586.61753l57.555942 1.426312M670.118669 586.61753l-66.308264-108.085586M670.118669 586.61753l7.25141 39.279511M670.118669 586.61753l-29.778756 75.83375M670.118669 586.61753l-37.335401-14.189356M670.118669 586.61753l44.91157 8.468325M48.0618665 652.536418l-27.0038188 34.565589M48.0618665 652.536418l47.5649991-3.041961M48.0618665 652.536418l18.8878771 13.440965M48.0618665 652.536418l-26.0287687 3.471093M48.0618665 652.536418L5.75879055 668.70753M48.0618665 652.536418l31.4503465-20.753092M609.950035 338.1475l12.750062 19.387912M609.950035 338.1475l-10.232617 6.673065M609.950035 338.1475l-16.584809 49.045945M609.950035 338.1475l-52.047376-24.272954M609.950035 338.1475l-24.555382-27.52052M609.950035 338.1475l-33.55425 30.419406M609.950035 338.1475l54.453899-7.205449M609.950035 338.1475l-35.543546 9.552446M609.950035 338.1475l-11.409127-41.638589M219.013202 337.161107l23.493637 12.819521M219.013202 337.161107l5.601499 23.265923M219.013202 337.161107l33.376891-28.431409M219.013202 337.161107l-9.402129 38.98567M219.013202 337.161107l38.245964-11.76904M219.013202 337.161107l4.354959-24.940202M943.91318 582.887495l-41.032163 18.150544M926.218484 726.847721l42.992795-34.011786M926.218484 726.847721l-10.809221-18.632048M926.218484 726.847721l-26.997179 34.903392M926.218484 726.847721l-40.474131 27.758049M926.218484 726.847721l-30.843557 19.179117M926.218484 726.847721l30.666388-40.847194M321.112017 592.03863l-7.993487 32.58942M321.112017 592.03863l22.344737 8.104992M321.112017 592.03863l35.586929 34.361887M321.112017 592.03863l33.551881 52.010988M781.922266 782.737101l-87.743429-18.896214M781.922266 782.737101l70.527848-14.777153M781.922266 782.737101l23.890909 4.666595M781.922266 782.737101l53.63368 19.874401M223.368161 312.220905l19.138678 37.759723M223.368161 312.220905l35.597701-27.898602M223.368161 312.220905l1.24654 48.206125M223.368161 312.220905l29.021932-3.491207M223.368161 312.220905l16.289564-39.982404M223.368161 312.220905l33.891005 13.171162M1154.296899 488.040554l-25.94503 40.549947M1154.296899 488.040554l3.04926 33.310514M1154.296899 488.040554l19.70613 10.990439M1154.296899 488.040554l25.76555-26.373345M1154.296899 488.040554l13.95864-33.218353M1154.296899 488.040554l-19.64139 25.403454M1154.296899 488.040554l28.04374-40.39177M1154.296899 488.040554l7.75857 44.815891M1154.296899 488.040554l-11.88206 47.944579M1154.296899 488.040554l38.96553-14.626086M354.663898 644.049618l28.117479 30.66392M354.663898 644.049618L313.11853 624.62805M354.663898 644.049618l-11.207144-43.905996M354.663898 644.049618l2.035048-17.649101M354.663898 644.049618l47.196392-14.589587M598.540908 296.508911l1.17651 48.311654M598.540908 296.508911l-76.116335-59.915499M598.540908 296.508911l-13.146255 14.118069M598.540908 296.508911l65.863026 34.43314M963.20914 627.91287l-60.328123-26.874831M963.20914 627.91287l-2.915347 34.32131M572.996009 164.833882l-73.491262-24.845283M572.996009 164.833882l191.170129 85.26108M572.996009 164.833882l15.55911-37.181909M572.996009 164.833882l-58.787329-.905806M572.996009 164.833882l-16.723873-36.720203M572.996009 164.833882l-55.433559-29.721125M571.887386 743.58815l8.15689-17.378656M571.887386 743.58815l-54.21843 26.653343M571.887386 743.58815l58.556644-13.068243M571.887386 743.58815l29.450348.223057M571.887386 743.58815l18.905459 17.508991M571.887386 743.58815l58.208507-50.154544M281.773227 694.714526l-48.944318-16.020348M281.773227 694.714526l61.154149 28.205812M281.773227 694.714526l-31.481249 19.690026M281.773227 694.714526l-42.607016-26.166841M281.773227 694.714526l-40.525889-65.720758M281.773227 694.714526l51.235547 41.85822M281.773227 694.714526l37.197576 24.479462M281.773227 694.714526l-53.041447-37.222345M281.773227 694.714526l-60.010859-6.171698M578.504495 814.559408l-43.282944 15.681084M578.504495 814.559408l-26.693862 21.978298M578.504495 814.559408l12.28835-53.462267M716.415682 955.432789l-96.969353 31.131149M716.415682 955.432789l95.876867-44.10329M1193.262429 473.414468l-19.2594 25.616525M1193.262429 473.414468l-13.19998-11.747259M1193.262429 473.414468l-25.00689-18.592267M1193.262429 473.414468l-10.92179-25.765684M1193.262429 473.414468l-4.54151-42.52099M441.846346 180.914498l5.209321 51.802893M441.846346 180.914498l11.477829-14.699931M441.846346 180.914498l-32.577412 54.47638M441.846346 180.914498l31.153378-7.493074M441.846346 180.914498l22.489314 28.898011M441.846346 180.914498l36.292477-25.134049M441.846346 180.914498l28.379345 18.692009M441.846346 180.914498l-3.973318-55.691107M441.846346 180.914498l26.979944-32.509948M441.846346 180.914498l7.816065 36.795314M55.2649342 598.918961l24.2472788 32.864365M429.698924 630.240017l100.499634-92.997653M429.698924 630.240017l-46.917547 44.473521M429.698924 630.240017l-26.993217 62.344098M429.698924 630.240017l-27.838634-.779986M449.662411 217.709812l13.878635 41.696233M449.662411 217.709812l-2.606744 15.007579M449.662411 217.709812l3.661764-51.495245M449.662411 217.709812l34.438999 34.502605M449.662411 217.709812l-40.393477 17.681066M449.662411 217.709812l23.337313-44.288388M449.662411 217.709812l21.435666 28.441635M449.662411 217.709812l-19.431539 46.978921M449.662411 217.709812l14.673249-7.897303M449.662411 217.709812l20.56328-18.103305M497.605688 941.690496l13.93619-20.335157M497.605688 941.690496l24.366457.053583M497.605688 941.690496l29.694723 18.606931M497.605688 941.690496l10.963224-42.378658M497.605688 941.690496l17.162706 1.60865M497.605688 941.690496l29.139351-23.383653M497.605688 941.690496l-5.673756-41.269088M505.085665 817.812648l5.746067-20.949088M505.085665 817.812648l-57.390172-12.908425M505.085665 817.812648l30.135886 12.427844M505.085665 817.812648l12.583291-47.571155M505.085665 817.812648l13.864453-6.789694M505.085665 817.812648l-14.896198 26.657194M880.150995 791.260516l-27.700881-23.300568M880.150995 791.260516l19.07031-29.509403M880.150995 791.260516l-17.779477 8.113208M880.150995 791.260516l5.593358-36.654746M880.150995 791.260516l15.223932-45.233678M880.150995 791.260516l-29.502078 32.802181M880.150995 791.260516l15.362627-6.559439M880.150995 791.260516l-44.595049 11.350986M852.722672 270.792454l-88.556534-20.697492M852.722672 270.792454l-12.526816 23.953879M543.666448 298.497354L501.1251 286.804002M543.666448 298.497354l-5.370877 12.853744M543.666448 298.497354l-20.457968-1.666096M543.666448 298.497354l14.236211 15.377192M543.666448 298.497354l41.728205 12.129626M715.030239 595.085855l-44.688478 14.441763M715.030239 595.085855l20.627494 23.67101M715.030239 595.085855l5.982468 9.579489M715.030239 595.085855l-27.872187 37.745303M715.030239 595.085855l12.644372-7.042013M715.030239 595.085855l62.379689 2.896322M715.030239 595.085855l-37.66016 30.811186M715.030239 595.085855l34.816894-28.659091M960.293793 662.23418l8.917486 30.601755M960.293793 662.23418l-44.88453 45.981493M960.293793 662.23418l-3.408921 23.766347M292.674827 775.498405l22.866455-15.357483M292.674827 775.498405l-32.684209-27.985087M292.674827 775.498405l-49.596688-3.326416M292.674827 775.498405l-10.586363 34.226038M749.847133 566.426764l-14.1894 52.330101M749.847133 566.426764l-28.834426 38.23858M749.847133 566.426764l24.729042-69.196644M749.847133 566.426764l-22.172522 21.617078M749.847133 566.426764l27.562795 31.555413M749.847133 566.426764l-17.590039-74.615912M1089.365689 459.433647l16.73391-27.213969M1089.365689 459.433647l19.13615-16.444912M1089.365689 459.433647l-12.40809-39.393288M1089.365689 459.433647l-44.26396-17.316341M390.069004 715.132446l-47.141628 7.787892M390.069004 715.132446l43.908163-.187284M390.069004 715.132446l-7.287627-40.418908M390.069004 715.132446l4.696201-8.583519M390.069004 715.132446l38.224422 14.479146M390.069004 715.132446l-24.680251 10.266432M390.069004 715.132446l12.636703-22.548331M401.86029 629.460031l128.338268-92.217667M401.86029 629.460031l-19.078913 45.253507M401.86029 629.460031l-45.161344-3.059514M401.86029 629.460031l.845417 63.124084M402.705707 692.584115l31.27146 22.361047M402.705707 692.584115l-19.92433-17.870577M402.705707 692.584115l-7.940502 13.964812M402.705707 692.584115l25.587719 37.027477M402.705707 692.584115l-37.316954 32.814763M386.222655 108.184995l32.783023-17.9045824M386.222655 108.184995l17.90349 14.799965M386.222655 108.184995l20.648792 1.087116M386.222655 108.184995l-24.224274 42.396686M386.222655 108.184995l51.650373 17.038396M195.713876 480.853586l16.742756 38.254977M195.713876 480.853586l7.225231 35.728533M195.713876 480.853586l-8.563572 37.009879M195.713876 480.853586l25.127793-18.955911M195.713876 480.853586l15.274411-22.835038M195.713876 480.853586l31.165219-63.269655M574.406489 347.699946l48.293608 9.835466M574.406489 347.699946l25.310929-2.879381M574.406489 347.699946l18.958737 39.493499M574.406489 347.699946l-36.110918-36.348848M574.406489 347.699946l-16.50383-33.8254M574.406489 347.699946l1.989296 20.86696M226.879095 417.583931l-2.264394-57.156901M226.879095 417.583931l-6.037426 44.313744M226.879095 417.583931l-17.268022-41.437154M226.879095 417.583931l47.825327-34.742802M226.879095 417.583931l40.803975-41.304163M226.879095 417.583931l-15.890808 40.434617M226.879095 417.583931l15.198864-21.797024M226.879095 417.583931l1.799204-19.700495M468.82629 148.40455l30.678457-8.415951M468.82629 148.40455l23.469219-24.59728M468.82629 148.40455l.211137-33.973893M468.82629 148.40455l-15.502115 17.810017M468.82629 148.40455l4.173434 25.016874M468.82629 148.40455l9.312533 7.375899M468.82629 148.40455l1.399401 51.201957M468.82629 148.40455l-30.953262-23.181159M444.356484 77.5896033l-3.936974 26.0858162M444.356484 77.5896033l24.680943 36.8410537M444.356484 77.5896033l-25.350806 12.6908093M444.356484 77.5896033l-28.264385-28.5470382M444.356484 77.5896033l9.014876-40.6331761M444.356484 77.5896033l-6.483456 47.6337877M207.781351 674.680133l25.047558 4.014045M207.781351 674.680133l-36.435308-27.526577M207.781351 674.680133l-11.98526-12.006097M207.781351 674.680133l-34.264974 7.063758M207.781351 674.680133l42.510627 39.724419M207.781351 674.680133l31.38486-6.132448M207.781351 674.680133l20.950429-17.187952M207.781351 674.680133l13.981017 13.862695M517.56245 135.112757l-18.057703 4.875842M517.56245 135.112757l-25.266941-11.305487M517.56245 135.112757l-48.525023-20.6821M517.56245 135.112757l-3.35377 28.815319M517.56245 135.112757l38.709686-6.999078M517.56245 135.112757l-39.423627 20.667692M257.259166 325.392067l-14.752327 24.588561M257.259166 325.392067l1.706696-41.069764M257.259166 325.392067l-32.644465 35.034963M257.259166 325.392067l65.851872-20.482045M257.259166 325.392067l27.459944 25.586239M1188.720919 430.893478l-8.65847 30.773731M1188.720919 430.893478l-28.36974-34.858987M1188.720919 430.893478l-20.46538 23.928723M1188.720919 430.893478l-6.38028 16.755306M758.236199 470.247666l-15.844856-35.914735M758.236199 470.247666l16.339976 26.982454M758.236199 470.247666l-25.979105 21.563186M437.873028 125.223391l2.546482-21.5479715M437.873028 125.223391l31.164399-10.792734M437.873028 125.223391l-18.86735-34.9429784M437.873028 125.223391l15.451147 40.991176M437.873028 125.223391l-33.746883-2.238431M437.873028 125.223391l-31.001581-15.95128M437.873028 125.223391l40.265795 30.557058M228.678299 397.883436l13.82854-47.902808M228.678299 397.883436l-4.063598-37.456406M228.678299 397.883436l-7.83663 64.014239M228.678299 397.883436l-19.067226-21.736659M228.678299 397.883436l46.026123-15.042307M228.678299 397.883436l39.004771-21.603668M228.678299 397.883436l-17.690012 60.135112M228.678299 397.883436l13.39966-2.096529M630.095893 693.433606l40.11583-14.039734M630.095893 693.433606l-50.051617 32.775888M630.095893 693.433606l.348137 37.086301M630.095893 693.433606l-28.758159 50.377601M630.095893 693.433606l57.062159-60.602448M630.095893 693.433606l23.288964 26.275039M630.095893 693.433606l47.274186-67.536565M630.095893 693.433606l10.24402-30.982326M491.931932 900.421408l19.609946 20.933931M491.931932 900.421408l16.63698-1.10957M491.931932 900.421408l22.836462 42.877738M491.931932 900.421408l-1.742465-55.951566M491.931932 900.421408l34.813107 17.885435M1003.354124 456.208149l28.389325-40.45546M1003.354124 456.208149l41.747605-14.090843M282.088464 809.724443l20.692595 18.500356M590.792845 761.097141l-10.748569-34.887647M590.792845 761.097141l39.651185-30.577234M590.792845 761.097141l10.544889-17.285934M590.792845 761.097141l62.592012-41.388496M1142.414839 535.985133l-48.81925 31.558352M1142.414839 535.985133l-26.31097-9.206109M1142.414839 535.985133l-14.06297-7.394632M1142.414839 535.985133l14.93132-14.634065M1142.414839 535.985133l31.58819-36.95414M1142.414839 535.985133l-14.90393 24.218375M1142.414839 535.985133l-7.75933-22.541125M1142.414839 535.985133l19.64063-3.128688M470.225691 199.606507l24.676959 27.01453M470.225691 199.606507l-6.684645 59.799538M470.225691 199.606507l-23.170024 33.110884M470.225691 199.606507l-16.901516-33.39194M470.225691 199.606507l13.875719 52.60591M470.225691 199.606507l2.774033-26.185083M470.225691 199.606507l.872386 46.54494M470.225691 199.606507l-5.890031 10.206002M470.225691 199.606507l7.913132-43.826058M551.810633 836.537706l-16.589082-6.297214M551.810633 836.537706l-32.860515-25.514752M405.889055 6.51797117l10.203044 42.52459393M405.889055 6.51797117L389.713244 32.2148995M284.71911 350.978306l-42.212271-.997678M284.71911 350.978306l38.391928-46.068284M284.71911 350.978306l65.96473-34.345658M284.71911 350.978306l-10.014688 31.862823M284.71911 350.978306l-17.03604 25.301462M284.71911 350.978306l39.154627-.989209M284.71911 350.978306l-42.641151 44.808601M632.783268 572.428174l-102.58471-35.18581M632.783268 572.428174L611.15072 453.907025M632.783268 572.428174l37.558493 37.099444M632.783268 572.428174l54.374784 60.402984M632.783268 572.428174l-28.972863-93.89623M632.783268 572.428174l44.586811 53.468867M632.783268 572.428174l7.556645 90.023106M790.1242 301.710623l-37.330525 24.549735M790.1242 301.710623l-25.958062-51.615661M790.1242 301.710623l50.071656-6.96429M790.1242 301.710623l-84.606486 13.962036M156.718496 604.407825l25.156934-46.616265M156.718496 604.407825l18.57855-2.07398M156.718496 604.407825l14.627547 42.745731M156.718496 604.407825l2.1461-35.435233M156.718496 604.407825l12.676169 14.168778M156.718496 604.407825l-34.921409 2.564257M156.718496 604.407825l-8.391485 35.706964M857.580096 896.253545l9.300109-27.871133M857.580096 896.253545l-45.287547 15.075954M857.580096 896.253545l-9.673259-47.693523M857.580096 896.253545l-31.759085-21.820357M478.138823 155.780449l21.365924-15.79185M478.138823 155.780449l14.156686-31.973179M478.138823 155.780449l-9.101396-41.349792M478.138823 155.780449l-24.814648 10.434118M478.138823 155.780449l-5.139099 17.640975M478.138823 155.780449l-13.803163 54.03206M478.138823 155.780449l36.069857 8.147627M1162.055469 532.856445l-45.9516-6.077421M1162.055469 532.856445l-33.7036-4.265944M1162.055469 532.856445l-4.70931-11.505377M1162.055469 532.856445l11.94756-33.825452M1162.055469 532.856445l-34.54456 27.347063M1162.055469 532.856445l-27.39996-19.412437M365.388753 725.398878l-22.461377-2.47854M365.388753 725.398878l17.392624-50.68534M365.388753 725.398878l-32.379979 11.173868M365.388753 725.398878l29.376452-18.849951M365.388753 725.398878l-46.41795-6.20489M556.272136 128.113679l32.282983-.461706M1045.101729 442.117306l24.83398-35.357163M1045.101729 442.117306l31.85587-22.076947M1045.101729 442.117306l-13.35828-26.364617M175.553926 730.578611l17.996515 32.32222M175.553926 730.578611l-1.642202 21.550775M175.553926 730.578611l-35.684997-17.7286M175.553926 730.578611l-2.037549-48.83472M175.553926 730.578611l41.120736 7.163967M175.553926 730.578611l38.938158 18.301097M221.762368 688.542828l11.066541-9.84865M221.762368 688.542828l-25.966277-25.868792M221.762368 688.542828l-48.245991-6.798937M221.762368 688.542828l28.52961 25.861724M221.762368 688.542828l17.403843-19.995143M221.762368 688.542828l6.969412-31.050647M242.077959 395.786907l.42888-45.806279M242.077959 395.786907l-17.463258-35.359877M242.077959 395.786907l-21.23629 66.110768M242.077959 395.786907l-32.466886-19.64013M242.077959 395.786907l32.626463-12.945778M242.077959 395.786907l25.605111-19.507139M242.077959 395.786907l-31.089672 62.231641M389.713244 32.2148995l26.378855 16.8276656M640.339913 662.45128l30.001848-52.923662M640.339913 662.45128l29.87181 16.942592M640.339913 662.45128l-60.295637 63.758214M640.339913 662.45128l-9.895883 68.068627M640.339913 662.45128l46.818139-29.620122M640.339913 662.45128l13.044944 57.257365M640.339913 662.45128l37.030166-36.554239M243.078139 772.171989l-49.527698-9.271158M243.078139 772.171989l16.912479-24.658671M243.078139 772.171989l-26.403477-34.429411M243.078139 772.171989l-28.586055-23.292281M526.745039 918.306843l-15.203161 3.048496M526.745039 918.306843l-4.772894 23.437236M526.745039 918.306843l.555372 41.990584M526.745039 918.306843l-18.176127-18.995005M526.745039 918.306843l-11.976645 24.992303M526.745039 918.306843l17.097854-5.365417M453.37136 36.9564272l-37.279261 12.0861379M210.988287 458.018548l1.468345 61.090015M210.988287 458.018548l-8.04918 58.563571M210.988287 458.018548l-23.837983 59.844917M210.988287 458.018548l9.853382 3.879127M1042.007629 337.965658l25.05108 15.788641M1042.007629 337.965658l-11.01886 19.745613M1042.007629 337.965658l10.24037 7.50327M1042.007629 337.965658l-47.683105 15.847957M1042.007629 337.965658l-26.93299 11.597535M576.42279 976.832888l7.071373-15.474887M576.42279 976.832888l-11.883396 12.380852M576.42279 976.832888l43.023539 9.73105M576.42279 976.832888l15.907826 14.215363M576.42279 976.832888l13.935972-37.698256M239.657725 272.238501l19.308137 12.083802M239.657725 272.238501l12.732368 36.491197M239.657725 272.238501l15.629386-20.084661M239.657725 272.238501l58.553144-34.180933M356.698946 626.400517l26.082431 48.313021M356.698946 626.400517l-43.580416-1.772467M356.698946 626.400517l-13.242192-26.256895M594.471372 417.945623l16.679348 35.961402M594.471372 417.945623l-1.106146-30.752178M594.471372 417.945623l-21.654946 31.708803M594.471372 417.945623l-18.075587-49.378717M594.471372 417.945623l9.339033 60.586321M343.456754 600.143622L313.11853 624.62805M705.517714 315.672659l47.275961 10.587699M705.517714 315.672659l-41.11378 15.269392M428.293426 729.611592l5.683741-14.66643M428.293426 729.611592l-33.528221-23.062665M1182.340639 447.648784l-2.27819 14.018425M1182.340639 447.648784l-14.0851 7.173417M664.403934 330.942051l-41.703837 26.593361M664.403934 330.942051l88.389741-4.681693M228.73178 657.492181l4.097129 21.201997M228.73178 657.492181l-32.935689 5.181855M228.73178 657.492181l10.434431 11.055504M228.73178 657.492181l12.515558-28.498413M361.998381 150.581681l42.127764-27.596721M361.998381 150.581681l44.873066-41.30957M361.998381 150.581681l-63.787512 87.475887M732.257094 491.810852l10.134249-57.477921M732.257094 491.810852l42.319081 5.419268M514.20868 163.928076l-14.703933-23.939477M514.20868 163.928076l-21.913171-40.120806M514.20868 163.928076l-41.208956 9.493348M318.970803 719.193988l-3.429521 40.946934M318.970803 719.193988l23.956573 3.72635M318.970803 719.193988l-68.678825-4.789436M318.970803 719.193988l14.037971 17.378758M1134.655509 513.444008l-18.55164 13.335016M1134.655509 513.444008l-6.30364 15.146493M1134.655509 513.444008l22.69065 7.90706M1134.655509 513.444008l39.34752-14.413015M1134.655509 513.444008l-7.1446 46.7595M214.492084 748.879708l-20.941643 14.021123M214.492084 748.879708l-40.58036 3.249678M214.492084 748.879708l45.498534-1.36639M214.492084 748.879708l2.182578-11.13713M214.492084 748.879708l35.799894-34.475156M677.370079 625.897041l-7.028318-16.369423M677.370079 625.897041l58.287654-7.140176M677.370079 625.897041l-7.158356 53.496831M677.370079 625.897041l43.642628-21.231697M677.370079 625.897041l9.787973 6.934117M677.370079 625.897041l50.304532-37.853199M902.881017 601.038039l-125.471089-3.055862M835.555946 802.611502l16.894168-34.651554M835.555946 802.611502l-29.742771-15.207806M835.555946 802.611502l26.815572-3.237778M835.555946 802.611502l15.092971 21.451195M835.555946 802.611502l12.350891 45.94852M490.189467 844.469842l20.642265-47.606282M490.189467 844.469842l-42.493974-39.565619M490.189467 844.469842l18.379445 54.841996M490.189467 844.469842l28.760651-33.446888M1015.074639 349.563193l51.98407 4.191106M1015.074639 349.563193l-61.053239-2.573268M1015.074639 349.563193l15.91413 8.148078M1015.074639 349.563193l37.17336-4.094265M1015.074639 349.563193l17.35755 39.096486M1015.074639 349.563193l-20.750115 4.250422M1096.054539 383.927235l29.4467 23.902083M1096.054539 383.927235l-28.99583-30.172936M1096.054539 383.927235l-26.11883 22.832908M1096.054539 383.927235l-19.09694 36.113124M1096.054539 383.927235l9.27047 21.88504M1096.054539 383.927235l.15123-13.828848M79.512213 631.783326l16.1146526 17.711131M79.512213 631.783326l-12.5624694 34.194057M79.512213 631.783326l42.284874-24.811244M5.75879055 668.70753l15.29925715 18.394477M5.75879055 668.70753l16.27430725-12.700019M1096.205769 370.098387l29.29547 37.730931M1096.205769 370.098387l-29.14706-16.344088M1096.205769 370.098387l-26.27006 36.661756M1096.205769 370.098387l-43.95777-24.629459M1096.205769 370.098387l9.11924 35.713888M603.810405 478.531944l-73.611847 58.71042M603.810405 478.531944l7.340315-24.624919M603.810405 478.531944l-10.445179-91.338499M603.810405 478.531944l-30.993979-28.877518M777.409928 597.982177l-41.752195 20.774688M777.409928 597.982177l-56.397221 6.683167M777.409928 597.982177l-49.735317-9.938335M394.765205 706.548927l-51.837829 16.371411M394.765205 706.548927l39.211962 8.396235M394.765205 706.548927l-11.983828-31.835389M543.842893 912.941426l-32.301015 8.413913M543.842893 912.941426l-21.870748 28.802653M543.842893 912.941426l-16.542482 47.356001M653.384857 719.708645l40.79398 44.132242M653.384857 719.708645l16.826866-40.314773M653.384857 719.708645l79.892209-50.165246M653.384857 719.708645l-22.940827 10.811262M653.384857 719.708645l-52.047123 24.102562M576.395785 368.566906l46.304312-11.031494M576.395785 368.566906l23.321633-23.746341M576.395785 368.566906l16.969441 18.626539M576.395785 368.566906l-3.579359 81.08752M576.395785 368.566906l-18.493126-54.69236M895.513622 784.701077l-43.063508-16.741129M895.513622 784.701077l3.707683-22.949964M895.513622 784.701077l-33.142104 14.672647M895.513622 784.701077l-9.769269-30.095307M895.513622 784.701077l-.138695-38.674239M590.358762 939.134632l1.971854 51.913619M727.674611 588.043842l7.983122 30.713023M727.674611 588.043842l-6.661904 16.621502M727.674611 588.043842l-40.516559 44.787316M514.768394 943.299146l-3.226516-21.943807M514.768394 943.299146l-6.199482-43.987308M592.330616 991.048251l-8.836453-29.69025M592.330616 991.048251l-27.791222-1.834511M592.330616 991.048251l27.115713-4.484313M1105.325009 405.812275l20.17623 2.017043M1105.325009 405.812275l-35.3893.947868M1105.325009 405.812275l.77459 26.407403M1105.325009 405.812275l3.17683 37.17646M1105.325009 405.812275l-28.36741 14.228084M323.873737 349.989097l-.762699-45.079075M323.873737 349.989097l26.810103-33.356449M323.873737 349.989097l-49.169315 32.852032M323.873737 349.989097l-56.190667 26.290671M585.394653 310.62698l37.305444 46.908432M585.394653 310.62698l14.322765 34.193585M585.394653 310.62698l-62.186173-13.795722M585.394653 310.62698l-27.491994 3.247566M464.33566 209.812509l30.56699 16.808528M464.33566 209.812509l-.794614 49.593536M464.33566 209.812509l-17.279993 22.904882M464.33566 209.812509l-11.011485-43.597942M464.33566 209.812509l19.76575 42.399908M464.33566 209.812509l8.664064-36.391085M464.33566 209.812509l6.762417 36.338938M522.424573 236.593412l-27.521923-9.972375M522.424573 236.593412l-38.323163 15.619005M1168.255539 454.822201l5.74749 44.208792M1168.255539 454.822201l11.80691 6.845008M217.172492 553.858221l-4.71586-34.749658M217.172492 553.858221l-15.694276 36.602491M217.172492 553.858221l-25.429105 16.634636M217.172492 553.858221l-1.64594 37.475752M217.172492 553.858221l-14.233385-37.276102M217.172492 553.858221l24.074846 75.135547M267.68307 376.279768l-25.176231-26.29914M267.68307 376.279768l7.021352 6.561361M557.902659 313.874546L501.1251 286.804002M557.902659 313.874546l41.814759 30.946019M557.902659 313.874546l-19.607088-2.523448M557.902659 313.874546l-34.694179-17.043288M430.230872 264.688733l33.310174-5.282688M430.230872 264.688733l16.824795-31.971342M430.230872 264.688733l53.870538-12.476316M430.230872 264.688733l-20.961938-29.297855M430.230872 264.688733l-79.547032 51.943915M430.230872 264.688733l40.867205-18.537286M825.821011 874.433188l41.059194-6.050776M825.821011 874.433188l-13.528462 36.896311M825.821011 874.433188l22.085826-25.873166M333.008774 736.572746l-17.467492 23.568176M333.008774 736.572746l9.918602-13.652408M956.884872 686.000527l12.326407 6.835408M956.884872 686.000527l-41.475609 22.215146M518.950118 811.022954l-8.118386-14.159394M518.950118 811.022954l-71.254625-6.118731M518.950118 811.022954l16.271433 19.217538M518.950118 811.022954l-1.281162-40.781461M687.158052 632.831158l-16.816291-23.30354M687.158052 632.831158l48.499681-14.074293M687.158052 632.831158l-16.946329 46.562714M687.158052 632.831158l46.119014 36.712241M687.158052 632.831158l33.854655-28.165814M298.210869 238.057568l67.664634 19.63838M298.210869 238.057568l-39.245007 46.264735M298.210869 238.057568l-42.923758 14.096272M601.337734 743.811207l-21.293458-17.601713M601.337734 743.811207l29.106296-13.2913M1127.510909 560.203508l-36.47688 29.173933M1127.510909 560.203508l-62.1517 17.23338M1127.510909 560.203508l-33.91532 7.339977M1127.510909 560.203508l-11.40704-33.424484M1127.510909 560.203508l.84096-31.613007M1127.510909 560.203508l29.83525-38.85244M1127.510909 560.203508l-50.46571 34.684275M241.247338 628.993768l-8.418429 49.70041M241.247338 628.993768l-39.769122-38.533056M241.247338 628.993768l-25.720786-37.659795M241.247338 628.993768l71.871192-4.365718M241.247338 628.993768l-2.081127 39.553917M239.166211 668.547685l-6.337302 10.146493M239.166211 668.547685l-43.37012-5.873649M239.166211 668.547685l11.125767 45.856867M416.092099 49.0425651l2.913579 41.2378475M1031.743449 415.752689l38.19226-8.992546M1031.743449 415.752689l.68874-27.09301M1031.743449 415.752689l45.21415 4.28767M1076.957599 420.040359l-7.02189-13.280216M1076.957599 420.040359l-44.52541-31.38068M1076.957599 420.040359l29.142 12.179319M1076.957599 420.040359l31.54424 22.948376M274.704422 382.841129l-32.197583-32.860501M471.098077 246.151447l23.804573-19.53041M471.098077 246.151447l-7.557031 13.254598M471.098077 246.151447l30.027023 40.652555M471.098077 246.151447l-24.04241-13.434056M471.098077 246.151447l13.003333 6.06097M630.44403 730.519907l63.734807 33.32098M630.44403 730.519907l39.767693-51.126035M630.44403 730.519907l-50.399754-4.310413M572.816426 449.654426l-42.617868 87.587938M572.816426 449.654426l38.334294 4.252599M406.871447 109.272111l33.548063-5.5966915M406.871447 109.272111l12.134231-18.9916984M406.871447 109.272111l-2.745302 13.712849M472.999724 173.421424l26.505023-33.432825M472.999724 173.421424l-19.675549-7.206857M840.195856 294.746333l-76.029718-44.651371M508.568912 899.311838l2.972966 22.043501M508.568912 899.311838l13.403233 42.432241M994.324524 353.813615l-77.531022-2.266498M994.324524 353.813615l-40.303124-6.82369M994.324524 353.813615l36.664245 3.897656M994.324524 353.813615l57.923475-8.344687M994.324524 353.813615l38.107665 34.846064M148.327011 640.114789l-52.7001454 9.379668M148.327011 640.114789l26.970035-37.780944M148.327011 640.114789l23.019032 7.038767M148.327011 640.114789l21.067654-21.538186M148.327011 640.114789l-26.529924-33.142707M148.327011 640.114789l25.189366 41.629102M250.291978 714.404552l-17.463069-35.710374M250.291978 714.404552l9.69864 33.108766M250.291978 714.404552l-33.617316 23.338026M797.56316 673.332632l67.95297 51.095456M797.56316 673.332632l-64.286094-3.789233M255.287111 252.15384l3.678751 32.168463M209.611073 376.146777l32.895766-26.166149M209.611073 376.146777l15.003628-15.719747M350.68384 316.632648l-27.572802-11.722626M409.268934 235.390878l37.786733-2.673487M409.268934 235.390878l-43.393431 22.30507M404.126145 122.98496l36.293365-19.3095405M404.126145 122.98496l14.879533-32.7045474M220.841669 461.897675l-8.385037 57.210888M220.841669 461.897675l-17.902562 54.684444M220.841669 461.897675l-33.691365 55.96579M323.111038 304.910022l42.764465-47.214074M216.674662 737.742578l-23.124221 25.158253M216.674662 737.742578l-42.762938 14.386808M216.674662 737.742578l43.315956 9.77074M774.576175 497.23012l-32.184832-62.897189M847.906837 848.560022l18.973368 19.82239M847.906837 848.560022l14.464681-49.186298M847.906837 848.560022l2.74208-24.497325M1108.501839 442.988735l16.9994-35.159417M1108.501839 442.988735l-38.56613-36.228592M1108.501839 442.988735l-2.40224-10.769057M850.648917 824.062697l16.231288 44.319715M850.648917 824.062697l-44.835742-36.659001M850.648917 824.062697l11.722601-24.688973M187.150304 517.863465l-5.274874 39.928095M187.150304 517.863465l25.306328 1.245098M187.150304 517.863465l4.593083 52.629392M187.150304 517.863465l-28.285708 51.109127M187.150304 517.863465l15.788803-1.281346M895.374927 746.026838l20.034336-37.811165M895.374927 746.026838l-42.924813 21.93311M895.374927 746.026838l-29.858797-21.59875M895.374927 746.026838l3.846378 15.724275M895.374927 746.026838l-9.630574 8.578932M721.012707 604.665344l-50.670946 4.862274M721.012707 604.665344l14.645026 14.091521M484.10141 252.212417l10.80124-25.59138M484.10141 252.212417l-20.560364 7.193628M484.10141 252.212417l17.02369 34.591585M484.10141 252.212417l-37.045743-19.495026M484.10141 252.212417l39.10707 44.618841M252.390093 308.729698l6.575769-24.407395M453.324175 166.214567l15.713252-51.78391M1160.351179 396.034491l-34.84994 11.794827M517.668956 770.241493l-6.837224 26.622067M517.668956 770.241493l62.37532-44.031999M173.516377 681.743891l-33.647448 31.10612M173.516377 681.743891l-2.170334-34.590335M173.516377 681.743891l22.279714-19.069855M173.516377 681.743891l-4.121712-63.167288M121.797087 606.972082l-26.1702214 42.522375M121.797087 606.972082l37.067509-37.99949M121.797087 606.972082l47.597578 11.604521M202.939107 516.582119L181.87543 557.79156M202.939107 516.582119l9.517525 2.526444M202.939107 516.582119l-11.19572 53.910738M1180.062449 461.667209l-6.05942 37.363784M419.005678 90.2804126l21.413832 13.3950069M469.037427 114.430657l30.46732 25.557942M469.037427 114.430657l23.258082 9.376613M469.037427 114.430657l-28.617917-10.7552375M523.20848 296.831258l-59.667434-37.425213M523.20848 296.831258l-22.08338-10.027256M523.20848 296.831258l15.087091 14.51984M224.614701 360.42703l17.892138-10.446402M259.990618 747.513318l55.550664 12.627604M1077.045199 594.887783l13.98883-5.510342M1077.045199 594.887783l-11.68599-17.450895M1077.045199 594.887783l16.55039-27.344298M733.277066 669.543399l-63.065343 9.850473M169.394665 618.576603l12.480765-60.785043M169.394665 618.576603l5.902381-16.242758M169.394665 618.576603l22.348722-48.083746M169.394665 618.576603l1.951378 28.576953M169.394665 618.576603l-10.530069-49.604011M169.394665 618.576603l26.401426 44.097433M885.744353 754.60577l29.66491-46.390097M885.744353 754.60577l-33.294239 13.354178M885.744353 754.60577l-20.228223-30.177682M885.744353 754.60577l13.476952 7.145343M885.744353 754.60577l-23.372835 44.767954M527.300411 960.297427l-15.758533-38.942088M527.300411 960.297427l37.238983 28.916313M527.300411 960.297427l-5.328266-18.553348M195.796091 662.674036l37.032818 16.020142M195.796091 662.674036l-24.450048-15.52048M1174.003029 499.030993l-16.65687 22.320075M1157.346159 521.351068l-41.24229 5.427956M1157.346159 521.351068l-28.99429 7.239433M1128.351869 528.590501l-34.75628 38.952984M1128.351869 528.590501l-12.248-1.811477M22.0330978 656.007511l-.9750501 31.094496M22.0330978 656.007511l44.9166458 9.969872M1116.103869 526.779024l-22.50828 40.764461M158.864596 568.972592l23.010834-11.181032M158.864596 568.972592l16.43245 33.361253M158.864596 568.972592l42.61362 21.48812M158.864596 568.972592l32.878791 1.520265M342.927376 722.920338l-27.386094 37.220584M66.9497436 665.977383l28.677122-16.482926M1106.099599 432.219678l19.40164-24.39036M1106.099599 432.219678l-36.16389-25.459535M492.295509 123.80727l7.209238 16.181329M521.972145 941.744079l-10.430267-20.38874M447.055667 232.717391l47.846983-6.096354M447.055667 232.717391l16.485379 26.688654M538.295571 311.351098L501.1251 286.804002M593.365226 387.193445l29.334871-29.658033M593.365226 387.193445l17.785494 66.71358M593.365226 387.193445l6.352192-42.37288M215.526552 591.333973L181.87543 557.79156M215.526552 591.333973l-40.229506 10.999872M215.526552 591.333973l-14.048336-.873261M215.526552 591.333973l-23.783165-20.841116M171.346043 647.153556l3.951003-44.819711M1093.595589 567.543485l-2.56156 21.833956M1093.595589 567.543485l-28.23638 9.893403M535.221551 830.240492l-24.389819-33.376932M862.371518 799.373724l-9.921404-31.413776M862.371518 799.373724l36.849787-37.622611M862.371518 799.373724l-56.558343-11.970028M805.813175 787.403696l-111.634338-23.562809M805.813175 787.403696l46.636939-19.443748M899.221305 761.751113l16.187958-53.53544M899.221305 761.751113l-46.771191 6.208835M899.221305 761.751113l-33.705175-37.323025M191.743387 570.492857l-9.867957-12.701297M191.743387 570.492857l-16.446341 31.840988M191.743387 570.492857l20.713245-51.384294M191.743387 570.492857l9.734829 19.967855M201.478216 590.460712L181.87543 557.79156M201.478216 590.460712l-26.18117 11.873133M447.695493 804.904223l63.136239-8.040663M599.717418 344.820565l22.982679 12.714847M212.456632 519.108563L181.87543 557.79156M619.446329 986.563938l-35.952166-25.205937M619.446329 986.563938l-54.906935 2.649802M1032.432189 388.659679l37.50352 18.100464M1032.432189 388.659679l-1.44342-30.948408M865.51613 724.428088l49.893133-16.212415M865.51613 724.428088l-13.066016 43.53186M752.793675 326.260358l163.999827 25.286759M139.868929 712.850011l34.042795 39.279375M175.297046 602.333845l6.578384-44.542285M564.539394 989.21374l18.954769-27.855739M1052.247999 345.468928l14.81071 8.285371M1052.247999 345.468928l-21.25923 12.242343M1030.988769 357.711271l36.06994-3.956972M954.0214 346.989925l-37.227898 4.557192M915.409263 708.215673l53.802016-15.379738M501.1251 286.804002l-37.584054-27.397957M463.541046 259.406045l31.361604-32.785008M1065.359209 577.436888l25.67482 11.940553"/></g><g fill="#EBEBEB" transform="translate(-1)"><circle cx="232.999" cy="503.472" r="5.64"/><circle cx="943.15" cy="381.496" r="5.64"/><circle cx="312.472" cy="733.845" r="5.64"/><circle cx="816.943" cy="827.568" r="5.64"/><circle cx="301.671" cy="804.684" r="5.64"/><circle cx="306.597" cy="376.852" r="5.64"/><circle cx="866.09" cy="324.846" r="5.64"/><circle cx="861.446" cy="288.477" r="5.64"/><circle cx="242.602" cy="547.879" r="5.64"/><circle cx="676.35" cy="412.282" r="5.64"/><circle cx="202.141" cy="684.867" r="5.64"/><circle cx="83.032" cy="687.66" r="5.64"/><circle cx="350.34" cy="561.913" r="5.64"/><circle cx="215.749" cy="499.312" r="5.64"/><circle cx="717.918" cy="755.06" r="5.64"/><circle cx="258.469" cy="358.899" r="5.64"/><circle cx="776.336" cy="647.446" r="5.64"/><circle cx="555.034" cy="787.389" r="5.64"/><circle cx="103.415" cy="687.715" r="5.64"/><circle cx="529.111" cy="317.004" r="5.64"/><circle cx="574.171" cy="943.082" r="5.64"/><circle cx="992.456" cy="375.291" r="5.64"/><circle cx="257.153" cy="407.162" r="5.64"/><circle cx="493.856" cy="179.789" r="5.64"/><circle cx="549.703" cy="341.796" r="5.64"/><circle cx="600.226" cy="773.167" r="5.64"/><circle cx="466.23" cy="70.736" r="5.64"/><circle cx="827.693" cy="688.659" r="5.64"/><circle cx="551.634" cy="328.041" r="5.64"/><circle cx="492.223" cy="821.028" r="5.64"/><circle cx="943.569" cy="601.644" r="5.64"/><circle cx="519.451" cy="153.82" r="5.64"/><circle cx="121.686" cy="562.566" r="5.64"/><circle cx="570.239" cy="333.086" r="5.64"/><circle cx="547.982" cy="760.561" r="5.64"/><circle cx="1066.779" cy="435.787" r="5.64"/><circle cx="969.544" cy="383.853" r="5.64"/><circle cx="211.935" cy="711.23" r="5.64"/><circle cx="935.59" cy="736.287" r="5.64"/><circle cx="846.198" cy="873.499" r="5.64"/><circle cx="1172.482" cy="426.045" r="5.64"/><circle cx="395.161" cy="725.234" r="5.64"/><circle cx="457.1" cy="148.442" r="5.64"/><circle cx="451.775" cy="731.28" r="5.64"/><circle cx="154.357" cy="524.208" r="5.64"/><circle cx="374.108" cy="754.948" r="5.64"/><circle cx="596.6" cy="717.572" r="5.64"/><circle cx="134.44" cy="620.223" r="5.64"/><circle cx="78.805" cy="562.323" r="5.64"/><circle cx="235.757" cy="318.267" r="5.64"/><circle cx="236.62" cy="296.128" r="5.64"/><circle cx="1123.883" cy="550.048" r="5.64"/><circle cx="563.12" cy="430.225" r="5.64"/><circle cx="478.421" cy="92.561" r="5.64"/><circle cx="48.765" cy="670.46" r="5.64"/><circle cx="611.656" cy="371.013" r="5.64"/><circle cx="926.198" cy="320.036" r="5.64"/><circle cx="1128.85" cy="386.519" r="5.64"/><circle cx="546.368" cy="952.003" r="5.64"/><circle cx="966.061" cy="596.434" r="5.64"/><circle cx="603.674" cy="971.136" r="5.64"/><circle cx="380.694" cy="404.662" r="5.64"/><circle cx="443.091" cy="59.94" r="5.64"/><circle cx="863.86" cy="780.768" r="5.64"/><circle cx="184.479" cy="504.332" r="5.64"/><circle cx="774.113" cy="615.564" r="5.64"/><circle cx="316.402" cy="332.685" r="5.64"/><circle cx="1034.56" cy="376.449" r="5.64"/><circle cx="1104.167" cy="551.617" r="5.64"/><circle cx="654.889" cy="313.535" r="5.64"/><circle cx="565.769" cy="871.313" r="5.64"/><circle cx="481.879" cy="241.045" r="5.64"/><circle cx="1047.523" cy="415.245" r="5.64"/><circle cx="269.57" cy="316.337" r="5.64"/><circle cx="975.58" cy="659.609" r="5.64"/><circle cx="548.62" cy="359.016" r="5.64"/><circle cx="364.7" cy="714.989" r="5.64"/><circle cx="1015.898" cy="622.365" r="5.64"/><circle cx="504.033" cy="325.596" r="5.64"/><circle cx="504.565" cy="723.977" r="5.64"/><circle cx="107.447" cy="533.631" r="5.64"/><circle cx="509.044" cy="278.905" r="5.64"/><circle cx="391.076" cy="76.9" r="5.64"/><circle cx="1150.424" cy="454.729" r="5.64"/><circle cx="439.001" cy="138.768" r="5.64"/><circle cx="963.466" cy="560.279" r="5.64"/><circle cx="1146.914" cy="436.224" r="5.64"/><circle cx="267.841" cy="432.887" r="5.64"/><circle cx="360.917" cy="613.868" r="5.64"/><circle cx="341.483" cy="624.406" r="5.64"/><circle cx="466.791" cy="128.678" r="5.64"/><circle cx="471.289" cy="794.928" r="5.64"/><circle cx="277.456" cy="841.515" r="5.64"/><circle cx="1148.894" cy="514.457" r="5.64"/><circle cx="394.299" cy="274.58" r="5.64"/><circle cx="478.091" cy="62.829" r="5.64"/><circle cx="841.457" cy="896.935" r="5.64"/><circle cx="654.887" cy="364.995" r="5.64"/><circle cx="752.149" cy="527.135" r="5.64"/><circle cx="966.557" cy="612.599" r="5.64"/><circle cx="433.402" cy="248.278" r="5.64"/><circle cx="559.406" cy="805.52" r="5.64"/><circle cx="184.528" cy="721.597" r="5.64"/><circle cx="350.887" cy="702.797" r="5.64"/><circle cx="868.525" cy="437.644" r="5.64"/><circle cx="1054.016" cy="366.027" r="5.64"/><circle cx="537.875" cy="340.88" r="5.64"/><circle cx="280.515" cy="789.138" r="5.64"/><circle cx="613.163" cy="393.625" r="5.64"/><circle cx="529.349" cy="333.276" r="5.64"/><circle cx="331.53" cy="795.481" r="5.64"/><circle cx="1073.198" cy="374.261" r="5.64"/><circle cx="369.392" cy="691.681" r="5.64"/><circle cx="282.7" cy="763.409" r="5.64"/><circle cx="428.254" cy="702.086" r="5.64"/><circle cx="1065.544" cy="446.841" r="5.64"/><circle cx="383.316" cy="289.055" r="5.64"/><circle cx="1078.139" cy="392.53" r="5.64"/><circle cx="1129.029" cy="486.267" r="5.64"/><circle cx="1090.866" cy="348.415" r="5.64"/><circle cx="645.272" cy="326.825" r="5.64"/><circle cx="518.285" cy="866.575" r="5.64"/><circle cx="428.883" cy="29.544" r="5.64"/><circle cx="985.884" cy="594.115" r="5.64"/><circle cx="406.62" cy="727.233" r="5.64"/><circle cx="483.75" cy="216.108" r="5.64"/><circle cx="1170.047" cy="408.965" r="5.64"/><circle cx="187.928" cy="347.606" r="5.64"/><circle cx="286.309" cy="525.39" r="5.64"/><circle cx="737.343" cy="543.257" r="5.64"/><circle cx="525.547" cy="271.332" r="5.64"/><circle cx="1165.982" cy="482.807" r="5.64"/><circle cx="1157.678" cy="422.274" r="5.64"/><circle cx="376.197" cy="617.186" r="5.64"/><circle cx="200.928" cy="635.819" r="5.64"/><circle cx="671.119" cy="586.618" r="5.64"/><circle cx="49.062" cy="652.536" r="5.64"/><circle cx="610.95" cy="338.147" r="5.64"/><circle cx="220.013" cy="337.161" r="5.64"/><circle cx="944.913" cy="582.887" r="5.64"/><circle cx="927.218" cy="726.848" r="5.64"/><circle cx="322.112" cy="592.039" r="5.64"/><circle cx="782.922" cy="782.737" r="5.64"/><circle cx="224.368" cy="312.221" r="5.64"/><circle cx="1155.297" cy="488.041" r="5.64"/><circle cx="355.664" cy="644.05" r="5.64"/><circle cx="599.541" cy="296.509" r="5.64"/><circle cx="964.209" cy="627.913" r="5.64"/><circle cx="573.996" cy="164.834" r="5.64"/><circle cx="572.887" cy="743.588" r="5.64"/><circle cx="282.773" cy="694.715" r="5.64"/><circle cx="579.504" cy="814.559" r="5.64"/><circle cx="717.416" cy="955.433" r="5.64"/><circle cx="1194.262" cy="473.414" r="5.64"/><circle cx="442.846" cy="180.914" r="5.64"/><circle cx="56.265" cy="598.919" r="5.64"/><circle cx="430.699" cy="630.24" r="5.64"/><circle cx="450.662" cy="217.71" r="5.64"/><circle cx="498.606" cy="941.69" r="5.64"/><circle cx="506.086" cy="817.813" r="5.64"/><circle cx="881.151" cy="791.261" r="5.64"/><circle cx="853.723" cy="270.792" r="5.64"/><circle cx="544.666" cy="298.497" r="5.64"/><circle cx="716.03" cy="595.086" r="5.64"/><circle cx="961.294" cy="662.234" r="5.64"/><circle cx="293.675" cy="775.498" r="5.64"/><circle cx="750.847" cy="566.427" r="5.64"/><circle cx="1090.366" cy="459.434" r="5.64"/><circle cx="391.069" cy="715.132" r="5.64"/><circle cx="402.86" cy="629.46" r="5.64"/><circle cx="403.706" cy="692.584" r="5.64"/><circle cx="387.223" cy="108.185" r="5.64"/><circle cx="196.714" cy="480.854" r="5.64"/><circle cx="575.406" cy="347.7" r="5.64"/><circle cx="227.879" cy="417.584" r="5.64"/><circle cx="469.826" cy="148.405" r="5.64"/><circle cx="445.356" cy="77.59" r="5.64"/><circle cx="208.781" cy="674.68" r="5.64"/><circle cx="518.562" cy="135.113" r="5.64"/><circle cx="258.259" cy="325.392" r="5.64"/><circle cx="1189.721" cy="430.893" r="5.64"/><circle cx="759.236" cy="470.248" r="5.64"/><circle cx="438.873" cy="125.223" r="5.64"/><circle cx="229.678" cy="397.883" r="5.64"/><circle cx="631.096" cy="693.434" r="5.64"/><circle cx="492.932" cy="900.421" r="5.64"/><circle cx="1004.354" cy="456.208" r="5.64"/><circle cx="283.088" cy="809.724" r="5.64"/><circle cx="591.793" cy="761.097" r="5.64"/><circle cx="1143.415" cy="535.985" r="5.64"/><circle cx="471.226" cy="199.607" r="5.64"/><circle cx="552.811" cy="836.538" r="5.64"/><circle cx="406.889" cy="6.518" r="5.64"/><circle cx="285.719" cy="350.978" r="5.64"/><circle cx="633.783" cy="572.428" r="5.64"/><circle cx="791.124" cy="301.711" r="5.64"/><circle cx="157.718" cy="604.408" r="5.64"/><circle cx="858.58" cy="896.254" r="5.64"/><circle cx="479.139" cy="155.78" r="5.64"/><circle cx="1163.055" cy="532.856" r="5.64"/><circle cx="366.389" cy="725.399" r="5.64"/><circle cx="557.272" cy="128.114" r="5.64"/><circle cx="1046.102" cy="442.117" r="5.64"/><circle cx="176.554" cy="730.579" r="5.64"/><circle cx="222.762" cy="688.543" r="5.64"/><circle cx="243.078" cy="395.787" r="5.64"/><circle cx="390.713" cy="32.215" r="5.64"/><circle cx="641.34" cy="662.451" r="5.64"/><circle cx="244.078" cy="772.172" r="5.64"/><circle cx="527.745" cy="918.307" r="5.64"/><circle cx="454.371" cy="36.956" r="5.64"/><circle cx="211.988" cy="458.019" r="5.64"/><circle cx="1043.008" cy="337.966" r="5.64"/><circle cx="577.423" cy="976.833" r="5.64"/><circle cx="240.658" cy="272.238" r="5.64"/><circle cx="357.699" cy="626.401" r="5.64"/><circle cx="595.471" cy="417.946" r="5.64"/><circle cx="344.457" cy="600.144" r="5.64"/><circle cx="706.518" cy="315.673" r="5.64"/><circle cx="429.293" cy="729.612" r="5.64"/><circle cx="1183.341" cy="447.649" r="5.64"/><circle cx="665.404" cy="330.942" r="5.64"/><circle cx="229.732" cy="657.492" r="5.64"/><circle cx="362.998" cy="150.582" r="5.64"/><circle cx="733.257" cy="491.811" r="5.64"/><circle cx="515.209" cy="163.928" r="5.64"/><circle cx="319.971" cy="719.194" r="5.64"/><circle cx="1135.656" cy="513.444" r="5.64"/><circle cx="215.492" cy="748.88" r="5.64"/><circle cx="678.37" cy="625.897" r="5.64"/><circle cx="903.881" cy="601.038" r="5.64"/><circle cx="836.556" cy="802.612" r="5.64"/><circle cx="491.189" cy="844.47" r="5.64"/><circle cx="1016.075" cy="349.563" r="5.64"/><circle cx="1097.055" cy="383.927" r="5.64"/><circle cx="80.512" cy="631.783" r="5.64"/><circle cx="6.759" cy="668.708" r="5.64"/><circle cx="1097.206" cy="370.098" r="5.64"/><circle cx="604.81" cy="478.532" r="5.64"/><circle cx="778.41" cy="597.982" r="5.64"/><circle cx="395.765" cy="706.549" r="5.64"/><circle cx="544.843" cy="912.941" r="5.64"/><circle cx="654.385" cy="719.709" r="5.64"/><circle cx="577.396" cy="368.567" r="5.64"/><circle cx="896.514" cy="784.701" r="5.64"/><circle cx="591.359" cy="939.135" r="5.64"/><circle cx="728.675" cy="588.044" r="5.64"/><circle cx="515.768" cy="943.299" r="5.64"/><circle cx="593.331" cy="991.048" r="5.64"/><circle cx="1106.325" cy="405.812" r="5.64"/><circle cx="324.874" cy="349.989" r="5.64"/><circle cx="586.395" cy="310.627" r="5.64"/><circle cx="465.336" cy="209.813" r="5.64"/><circle cx="523.425" cy="236.593" r="5.64"/><circle cx="1169.256" cy="454.822" r="5.64"/><circle cx="218.172" cy="553.858" r="5.64"/><circle cx="589.555" cy="127.652" r="5.64"/><circle cx="268.683" cy="376.28" r="5.64"/><circle cx="558.903" cy="313.875" r="5.64"/><circle cx="431.231" cy="264.689" r="5.64"/><circle cx="826.821" cy="874.433" r="5.64"/><circle cx="334.009" cy="736.573" r="5.64"/><circle cx="957.885" cy="686.001" r="5.64"/><circle cx="519.95" cy="811.023" r="5.64"/><circle cx="688.158" cy="632.831" r="5.64"/><circle cx="299.211" cy="238.058" r="5.64"/><circle cx="602.338" cy="743.811" r="5.64"/><circle cx="1128.511" cy="560.204" r="5.64"/><circle cx="242.247" cy="628.994" r="5.64"/><circle cx="240.166" cy="668.548" r="5.64"/><circle cx="417.092" cy="49.043" r="5.64"/><circle cx="1032.743" cy="415.753" r="5.64"/><circle cx="314.119" cy="624.628" r="5.64"/><circle cx="1077.958" cy="420.04" r="5.64"/><circle cx="275.704" cy="382.841" r="5.64"/><circle cx="472.098" cy="246.151" r="5.64"/><circle cx="631.444" cy="730.52" r="5.64"/><circle cx="573.816" cy="449.654" r="5.64"/><circle cx="407.871" cy="109.272" r="5.64"/><circle cx="474" cy="173.421" r="5.64"/><circle cx="841.196" cy="294.746" r="5.64"/><circle cx="509.569" cy="899.312" r="5.64"/><circle cx="995.325" cy="353.814" r="5.64"/><circle cx="149.327" cy="640.115" r="5.64"/><circle cx="383.781" cy="674.714" r="5.64"/><circle cx="251.292" cy="714.405" r="5.64"/><circle cx="798.563" cy="673.333" r="5.64"/><circle cx="256.287" cy="252.154" r="5.64"/><circle cx="210.611" cy="376.147" r="5.64"/><circle cx="351.684" cy="316.633" r="5.64"/><circle cx="410.269" cy="235.391" r="5.64"/><circle cx="405.126" cy="122.985" r="5.64"/><circle cx="221.842" cy="461.898" r="5.64"/><circle cx="324.111" cy="304.91" r="5.64"/><circle cx="217.675" cy="737.743" r="5.64"/><circle cx="775.576" cy="497.23" r="5.64"/><circle cx="848.907" cy="848.56" r="5.64"/><circle cx="1109.502" cy="442.989" r="5.64"/><circle cx="765.166" cy="250.095" r="5.64"/><circle cx="150.459" cy="329.881" r="5.64"/><circle cx="851.649" cy="824.063" r="5.64"/><circle cx="188.15" cy="517.863" r="5.64"/><circle cx="896.375" cy="746.027" r="5.64"/><circle cx="743.391" cy="434.333" r="5.64"/><circle cx="722.013" cy="604.665" r="5.64"/><circle cx="485.101" cy="252.212" r="5.64"/><circle cx="253.39" cy="308.73" r="5.64"/><circle cx="454.324" cy="166.215" r="5.64"/><circle cx="1161.351" cy="396.034" r="5.64"/><circle cx="434.977" cy="714.945" r="5.64"/><circle cx="518.669" cy="770.241" r="5.64"/><circle cx="174.516" cy="681.744" r="5.64"/><circle cx="122.797" cy="606.972" r="5.64"/><circle cx="203.939" cy="516.582" r="5.64"/><circle cx="1181.062" cy="461.667" r="5.64"/><circle cx="420.006" cy="90.28" r="5.64"/><circle cx="470.037" cy="114.431" r="5.64"/><circle cx="524.208" cy="296.831" r="5.64"/><circle cx="225.615" cy="360.427" r="5.64"/><circle cx="260.991" cy="747.513" r="5.64"/><circle cx="1078.045" cy="594.888" r="5.64"/><circle cx="734.277" cy="669.543" r="5.64"/><circle cx="170.395" cy="618.577" r="5.64"/><circle cx="886.744" cy="754.606" r="5.64"/><circle cx="259.966" cy="284.322" r="5.64"/><circle cx="528.3" cy="960.297" r="5.64"/><circle cx="196.796" cy="662.674" r="5.64"/><circle cx="813.293" cy="911.329" r="5.64"/><circle cx="581.044" cy="726.209" r="5.64"/><circle cx="1175.003" cy="499.031" r="5.64"/><circle cx="1158.346" cy="521.351" r="5.64"/><circle cx="1129.352" cy="528.591" r="5.64"/><circle cx="23.033" cy="656.008" r="5.64"/><circle cx="671.212" cy="679.394" r="5.64"/><circle cx="1117.104" cy="526.779" r="5.64"/><circle cx="366.876" cy="257.696" r="5.64"/><circle cx="159.865" cy="568.973" r="5.64"/><circle cx="343.927" cy="722.92" r="5.64"/><circle cx="67.95" cy="665.977" r="5.64"/><circle cx="441.42" cy="103.675" r="5.64"/><circle cx="1107.1" cy="432.22" r="5.64"/><circle cx="493.296" cy="123.807" r="5.64"/><circle cx="522.972" cy="941.744" r="5.64"/><circle cx="303.781" cy="828.225" r="5.64"/><circle cx="448.056" cy="232.717" r="5.64"/><circle cx="539.296" cy="311.351" r="5.64"/><circle cx="243.507" cy="349.981" r="5.64"/><circle cx="594.365" cy="387.193" r="5.64"/><circle cx="216.527" cy="591.334" r="5.64"/><circle cx="172.346" cy="647.154" r="5.64"/><circle cx="500.505" cy="139.989" r="5.64"/><circle cx="1094.596" cy="567.543" r="5.64"/><circle cx="536.222" cy="830.24" r="5.64"/><circle cx="863.372" cy="799.374" r="5.64"/><circle cx="806.813" cy="787.404" r="5.64"/><circle cx="900.221" cy="761.751" r="5.64"/><circle cx="192.743" cy="570.493" r="5.64"/><circle cx="736.658" cy="618.757" r="5.64"/><circle cx="202.478" cy="590.461" r="5.64"/><circle cx="448.695" cy="804.904" r="5.64"/><circle cx="600.717" cy="344.821" r="5.64"/><circle cx="213.457" cy="519.109" r="5.64"/><circle cx="620.446" cy="986.564" r="5.64"/><circle cx="511.832" cy="796.864" r="5.64"/><circle cx="1033.432" cy="388.66" r="5.64"/><circle cx="866.516" cy="724.428" r="5.64"/><circle cx="753.794" cy="326.26" r="5.64"/><circle cx="140.869" cy="712.85" r="5.64"/><circle cx="853.45" cy="767.96" r="5.64"/><circle cx="176.297" cy="602.334" r="5.64"/><circle cx="695.179" cy="763.841" r="5.64"/><circle cx="565.539" cy="989.214" r="5.64"/><circle cx="1053.248" cy="345.469" r="5.64"/><circle cx="1031.989" cy="357.711" r="5.64"/><circle cx="584.494" cy="961.358" r="5.64"/><circle cx="96.627" cy="649.494" r="5.64"/><circle cx="955.021" cy="346.99" r="5.64"/><circle cx="917.794" cy="351.547" r="5.64"/><circle cx="316.541" cy="760.141" r="5.64"/><circle cx="916.409" cy="708.216" r="5.64"/><circle cx="174.912" cy="752.129" r="5.64"/><circle cx="1070.936" cy="406.76" r="5.64"/><circle cx="502.125" cy="286.804" r="5.64"/><circle cx="1068.059" cy="353.754" r="5.64"/><circle cx="464.541" cy="259.406" r="5.64"/><circle cx="671.342" cy="609.528" r="5.64"/><circle cx="233.829" cy="678.694" r="5.64"/><circle cx="1066.359" cy="577.437" r="5.64"/><circle cx="194.55" cy="762.901" r="5.64"/><circle cx="22.058" cy="687.102" r="5.64"/><circle cx="612.151" cy="453.907" r="5.64"/><circle cx="495.903" cy="226.621" r="5.64"/><circle cx="1126.501" cy="407.829" r="5.64"/><circle cx="1092.034" cy="589.377" r="5.64"/><circle cx="182.875" cy="557.792" r="5.64"/><circle cx="512.542" cy="921.355" r="5.64"/><circle cx="970.211" cy="692.836" r="5.64"/><circle cx="531.199" cy="537.242" r="5.64"/><circle cx="867.88" cy="868.382" r="5.64"/><circle cx="623.7" cy="357.535" r="5.64"/></g></g></svg>