<svg xmlns="http://www.w3.org/2000/svg" xmlns:svg="http://www.w3.org/2000/svg" id="svg8" width="640" height="480" version="1.1" viewBox="0 0 640 480"><metadata id="metadata14"/><path id="path2" fill="red" d="M0 0h640v160H0z" style="fill:#999"/><path id="path4" fill="#00f" d="M0 160h640v160H0z" style="fill:#ececec"/><path id="path6" fill="orange" d="M0 320h640v160H0z" style="fill:#ccc"/><g style="font-style:normal;font-variant:normal;font-weight:400;font-stretch:normal;font-size:133.33332825px;line-height:25px;font-family:'TeX Gyre Termes';-inkscape-font-specification:'TeX Gyre Termes';letter-spacing:0;word-spacing:0;fill:#000;fill-opacity:1;stroke:none;stroke-width:1px;stroke-linecap:butt;stroke-linejoin:miter;stroke-opacity:1" id="flowRoot832" aria-label="?" transform="matrix(1.3499623,0,0,1.3499623,-97.048349,116.0369)"><path style="font-style:normal;font-variant:normal;font-weight:700;font-stretch:normal;font-size:266.66665649px;font-family:'TeX Gyre Adventor';-inkscape-font-specification:'TeX Gyre Adventor Bold'" id="path846" d="m 369.33333,52.627085 c 0,-34.933332 -25.86667,-61.0666644 -60,-61.0666644 -31.73333,0 -57.6,20.5333324 -60.8,61.8666644 H 284 c 2.4,-18.133333 10.13333,-26.666666 24.53333,-26.666666 14.66667,0 25.33333,10.4 25.33333,24.799999 0,8 -4,16 -12,22.666666 C 295.2,96.09375 289.33333,108.89375 289.33333,142.22708 H 324.8 c 0.26666,-23.2 2.66666,-29.06666 17.33333,-41.86666 20.53333,-17.86667 27.2,-29.866669 27.2,-47.733335 z M 324.8,192.09375 v -34.13334 h -35.46667 v 34.13334 z"/></g></svg>